  0
SECTION
  2
HEADER
  9
$ACADVER
  1
AC1006
  9
$CLAYER
  8
1
  0
ENDSEC
  0
SECTION
  2
TABLES
  0
TABLE
  2
LTYPE
 70
1
  0
LTYPE
  2
CONTINUOUS
 70
64
  3
SOLIDLINE
 72
65
 73
0
 40
0.000000
  0
ENDTAB
  0
TABLE
  2
LAYER
 70
14
  0
LAYER
  2
1
 70
0
 62
7
  6
CONTINUOUS
  0
LAYER
  2
2
 70
0
 62
1
  6
CONTINUOUS
  0
LAYER
  2
3
 70
0
 62
2
  6
CONTINUOUS
  0
LAYER
  2
4
 70
0
 62
3
  6
CONTINUOUS
  0
LAYER
  2
5
 70
0
 62
5
  6
CONTINUOUS
  0
LAYER
  2
6
 70
0
 62
5
  6
CONTINUOUS
  0
LAYER
  2
7
 70
0
 62
5
  6
CONTINUOUS
  0
LAYER
  2
8
 70
0
 62
4
  6
CONTINUOUS
  0
LAYER
  2
9
 70
0
 62
5
  6
CONTINUOUS
  0
LAYER
  2
10
 70
0
 62
5
  6
CONTINUOUS
  0
LAYER
  2
11
 70
0
 62
4
  6
CONTINUOUS
  0
LAYER
  2
12
 70
0
 62
6
  6
CONTINUOUS
  0
LAYER
  2
13
 70
0
 62
4
  6
CONTINUOUS
  0
LAYER
  2
14
 70
0
 62
7
  6
CONTINUOUS
  0
ENDTAB
  0
TABLE
  2
STYLE
 70
1
  0
STYLE
  2
0
 70
0
 40
0.000000
 41
1.000000
 50
0.000000
 71
0
 42
1.000000
  3

  4

  0
ENDTAB
  0
ENDSEC
  0
SECTION
  2
BLOCKS
  0
ENDSEC
  0
SECTION
  2
ENTITIES
  0
POLYLINE
  8
0
 66
1
 70
    0
  0
VERTEX
  8
0
 10
5630.678223
 20
687.738037
  0
VERTEX
  8
0
 10
5646.982422
 20
680.763855
  0
VERTEX
  8
0
 10
5661.249023
 20
674.661499
  0
VERTEX
  8
0
 10
5677.553223
 20
667.687256
  0
VERTEX
  8
0
 10
5691.819824
 20
661.584900
  0
VERTEX
  8
0
 10
5708.124023
 20
654.610718
  0
VERTEX
  8
0
 10
5722.390137
 20
648.508362
  0
SEQEND
  0
LINE
  8
0
 10
5610.802246
 20
599.960205
 11
5630.678223
 21
687.738159
  0
LINE
  8
0
 10
5610.802246
 20
689.960327
 11
5610.802246
 21
599.960205
  0
POLYLINE
  8
0
 66
1
 70
    0
  0
VERTEX
  8
0
 10
5578.098145
 20
695.962524
  0
VERTEX
  8
0
 10
5595.540527
 20
692.761292
  0
VERTEX
  8
0
 10
5610.802246
 20
689.960205
  0
SEQEND
  0
POLYLINE
  8
0
 66
1
 70
    0
  0
VERTEX
  8
0
 10
5514.298340
 20
672.037476
  0
VERTEX
  8
0
 10
5519.298340
 20
672.037476
  0
VERTEX
  8
0
 10
5521.698242
 20
672.037476
  0
VERTEX
  8
0
 10
5527.354980
 20
672.177795
  0
VERTEX
  8
0
 10
5532.999023
 20
672.620667
  0
VERTEX
  8
0
 10
5535.810547
 20
672.962769
  0
VERTEX
  8
0
 10
5541.750000
 20
673.975342
  0
VERTEX
  8
0
 10
5547.602539
 20
675.402771
  0
VERTEX
  8
0
 10
5551.911133
 20
676.765869
  0
VERTEX
  8
0
 10
5557.488770
 20
678.993835
  0
VERTEX
  8
0
 10
5562.832520
 20
681.739746
  0
VERTEX
  8
0
 10
5566.640625
 20
684.167786
  0
VERTEX
  8
0
 10
5568.904297
 20
685.846924
  0
VERTEX
  8
0
 10
5571.062988
 20
687.659119
  0
VERTEX
  8
0
 10
5573.092285
 20
689.606384
  0
VERTEX
  8
0
 10
5574.967773
 20
691.690857
  0
VERTEX
  8
0
 10
5576.664551
 20
693.914612
  0
VERTEX
  8
0
 10
5578.098145
 20
695.962524
  0
SEQEND
  0
POLYLINE
  8
0
 66
1
 70
    0
  0
VERTEX
  8
0
 10
5534.298340
 20
268.037567
  0
VERTEX
  8
0
 10
5534.298340
 20
270.537506
  0
VERTEX
  8
0
 10
5534.134766
 20
286.977173
  0
VERTEX
  8
0
 10
5533.666504
 20
303.411987
  0
VERTEX
  8
0
 10
5532.931641
 20
319.840668
  0
VERTEX
  8
0
 10
5531.967773
 20
336.261932
  0
VERTEX
  8
0
 10
5529.503418
 20
369.076935
  0
VERTEX
  8
0
 10
5526.788574
 20
399.548676
  0
VERTEX
  8
0
 10
5520.718750
 20
464.505859
  0
VERTEX
  8
0
 10
5518.090332
 20
497.001617
  0
VERTEX
  8
0
 10
5517.000000
 20
513.263184
  0
VERTEX
  8
0
 10
5516.104980
 20
529.537476
  0
VERTEX
  8
0
 10
5515.076660
 20
557.117188
  0
VERTEX
  8
0
 10
5514.463867
 20
591.089783
  0
VERTEX
  8
0
 10
5514.362305
 20
603.493042
  0
VERTEX
  8
0
 10
5514.298340
 20
669.637512
  0
VERTEX
  8
0
 10
5514.298340
 20
672.037476
  0
SEQEND
  0
POLYLINE
  8
0
 66
1
 70
    0
  0
VERTEX
  8
0
 10
5534.298340
 20
2.037567
  0
VERTEX
  8
0
 10
5534.298340
 20
66.037567
  0
VERTEX
  8
0
 10
5534.298340
 20
68.537506
  0
VERTEX
  8
0
 10
5534.298340
 20
167.037506
  0
VERTEX
  8
0
 10
5534.298340
 20
265.537506
  0
VERTEX
  8
0
 10
5534.298340
 20
268.037567
  0
SEQEND
  0
POLYLINE
  8
0
 66
1
 70
    0
  0
VERTEX
  8
0
 10
5636.750000
 20
2.037506
  0
VERTEX
  8
0
 10
5626.965820
 20
2.037506
  0
VERTEX
  8
0
 10
5561.038574
 20
2.037506
  0
VERTEX
  8
0
 10
5558.638672
 20
2.037506
  0
VERTEX
  8
0
 10
5534.298340
 20
2.037506
  0
SEQEND
  0
POLYLINE
  8
0
 66
1
 70
    0
  0
VERTEX
  8
0
 10
5777.701660
 20
2.037506
  0
VERTEX
  8
0
 10
5775.201660
 20
2.037506
  0
VERTEX
  8
0
 10
5734.035645
 20
2.037506
  0
VERTEX
  8
0
 10
5668.169922
 20
2.037506
  0
VERTEX
  8
0
 10
5636.750000
 20
2.037506
  0
SEQEND
  0
POLYLINE
  8
0
 66
1
 70
    0
  0
VERTEX
  8
0
 10
5739.057617
 20
273.034912
  0
VERTEX
  8
0
 10
5739.947266
 20
270.698517
  0
VERTEX
  8
0
 10
5741.447266
 20
266.716187
  0
VERTEX
  8
0
 10
5746.508301
 20
252.600494
  0
VERTEX
  8
0
 10
5750.758789
 20
239.790009
  0
VERTEX
  8
0
 10
5755.081543
 20
225.628387
  0
VERTEX
  8
0
 10
5758.665527
 20
212.780838
  0
VERTEX
  8
0
 10
5762.263672
 20
198.554184
  0
VERTEX
  8
0
 10
5765.193359
 20
185.650421
  0
VERTEX
  8
0
 10
5768.076660
 20
171.339157
  0
VERTEX
  8
0
 10
5769.231445
 20
165.000061
  0
VERTEX
  8
0
 10
5771.567871
 20
150.675507
  0
VERTEX
  8
0
 10
5773.362793
 20
137.657074
  0
VERTEX
  8
0
 10
5774.978516
 20
123.330826
  0
VERTEX
  8
0
 10
5776.121094
 20
110.308212
  0
VERTEX
  8
0
 10
5777.021484
 20
95.963074
  0
VERTEX
  8
0
 10
5777.515137
 20
82.918961
  0
VERTEX
  8
0
 10
5777.701660
 20
68.537506
  0
VERTEX
  8
0
 10
5777.701660
 20
66.037506
  0
VERTEX
  8
0
 10
5777.701660
 20
63.537506
  0
VERTEX
  8
0
 10
5777.701660
 20
34.037506
  0
VERTEX
  8
0
 10
5777.701660
 20
4.537506
  0
VERTEX
  8
0
 10
5777.701660
 20
2.037506
  0
SEQEND
  0
POLYLINE
  8
0
 66
1
 70
    0
  0
VERTEX
  8
0
 10
5753.604980
 20
482.037537
  0
VERTEX
  8
0
 10
5753.214844
 20
479.568176
  0
VERTEX
  8
0
 10
5741.676758
 20
412.089111
  0
VERTEX
  8
0
 10
5738.675293
 20
392.023071
  0
VERTEX
  8
0
 10
5736.928223
 20
377.970673
  0
VERTEX
  8
0
 10
5736.337891
 20
372.461609
  0
VERTEX
  8
0
 10
5735.082520
 20
358.455383
  0
VERTEX
  8
0
 10
5734.351074
 20
346.851135
  0
VERTEX
  8
0
 10
5733.933105
 20
334.677734
  0
VERTEX
  8
0
 10
5733.893555
 20
324.476135
  0
VERTEX
  8
0
 10
5734.206055
 20
313.421875
  0
VERTEX
  8
0
 10
5734.779785
 20
304.137512
  0
VERTEX
  8
0
 10
5735.775879
 20
293.851471
  0
VERTEX
  8
0
 10
5736.925293
 20
285.217773
  0
VERTEX
  8
0
 10
5738.586914
 20
275.490234
  0
VERTEX
  8
0
 10
5739.057617
 20
273.034912
  0
SEQEND
  0
POLYLINE
  8
0
 66
1
 70
    0
  0
VERTEX
  8
0
 10
5722.390137
 20
648.508362
  0
VERTEX
  8
0
 10
5721.501465
 20
646.279053
  0
VERTEX
  8
0
 10
5718.483398
 20
638.481567
  0
VERTEX
  8
0
 10
5715.640625
 20
630.617615
  0
VERTEX
  8
0
 10
5712.996094
 20
622.683228
  0
VERTEX
  8
0
 10
5710.575195
 20
614.674683
  0
VERTEX
  8
0
 10
5708.400879
 20
606.587891
  0
VERTEX
  8
0
 10
5706.497559
 20
598.419006
  0
VERTEX
  8
0
 10
5704.889648
 20
590.164307
  0
VERTEX
  8
0
 10
5703.603516
 20
581.823059
  0
VERTEX
  8
0
 10
5702.673340
 20
573.422180
  0
VERTEX
  8
0
 10
5702.136719
 20
564.991943
  0
VERTEX
  8
0
 10
5702.030762
 20
556.562500
  0
VERTEX
  8
0
 10
5702.392090
 20
548.164062
  0
VERTEX
  8
0
 10
5703.257812
 20
539.826843
  0
VERTEX
  8
0
 10
5705.104980
 20
529.537476
  0
VERTEX
  8
0
 10
5706.154297
 20
525.415100
  0
VERTEX
  8
0
 10
5707.447266
 20
521.364441
  0
VERTEX
  8
0
 10
5708.985352
 20
517.395508
  0
VERTEX
  8
0
 10
5710.769531
 20
513.518188
  0
VERTEX
  8
0
 10
5712.800293
 20
509.742493
  0
VERTEX
  8
0
 10
5715.079590
 20
506.078430
  0
VERTEX
  8
0
 10
5717.606934
 20
502.535889
  0
VERTEX
  8
0
 10
5721.867188
 20
497.471741
  0
VERTEX
  8
0
 10
5725.134277
 20
494.176331
  0
VERTEX
  8
0
 10
5728.644531
 20
491.116943
  0
VERTEX
  8
0
 10
5732.371094
 20
488.372620
  0
VERTEX
  8
0
 10
5736.287109
 20
486.022186
  0
VERTEX
  8
0
 10
5740.366699
 20
484.144653
  0
VERTEX
  8
0
 10
5744.582520
 20
482.818909
  0
VERTEX
  8
0
 10
5746.733887
 20
482.387604
  0
VERTEX
  8
0
 10
5748.908691
 20
482.123901
  0
VERTEX
  8
0
 10
5751.104980
 20
482.037506
  0
VERTEX
  8
0
 10
5753.604980
 20
482.037506
  0
SEQEND
  0
POLYLINE
  8
1
 66
1
 70
    0
  0
VERTEX
  8
1
 10
5900.811523
 20
688.092834
  0
VERTEX
  8
1
 10
5916.603027
 20
681.468018
  0
VERTEX
  8
1
 10
5932.395020
 20
674.843140
  0
VERTEX
  8
1
 10
5948.186523
 20
668.218323
  0
VERTEX
  8
1
 10
5963.978027
 20
661.593506
  0
VERTEX
  8
1
 10
5979.770020
 20
654.968628
  0
VERTEX
  8
1
 10
5995.561523
 20
648.343811
  0
SEQEND
  0
LINE
  8
1
 10
5880.935547
 20
600.315063
 11
5900.811523
 21
688.092896
  0
LINE
  8
1
 10
5880.935547
 20
690.315125
 11
5880.935547
 21
600.315063
  0
POLYLINE
  8
1
 66
1
 70
    0
  0
VERTEX
  8
1
 10
5847.205566
 20
696.262512
  0
VERTEX
  8
1
 10
5864.070312
 20
693.288757
  0
VERTEX
  8
1
 10
5880.935547
 20
690.315063
  0
SEQEND
  0
POLYLINE
  8
1
 66
1
 70
    0
  0
VERTEX
  8
1
 10
5781.805664
 20
671.737488
  0
VERTEX
  8
1
 10
5786.805664
 20
671.737488
  0
VERTEX
  8
1
 10
5789.205566
 20
671.737488
  0
VERTEX
  8
1
 10
5795.039062
 20
671.882263
  0
VERTEX
  8
1
 10
5800.859375
 20
672.338989
  0
VERTEX
  8
1
 10
5803.758789
 20
672.691772
  0
VERTEX
  8
1
 10
5809.857422
 20
673.730408
  0
VERTEX
  8
1
 10
5815.867188
 20
675.193359
  0
VERTEX
  8
1
 10
5820.291504
 20
676.589844
  0
VERTEX
  8
1
 10
5826.020020
 20
678.871948
  0
VERTEX
  8
1
 10
5831.509766
 20
681.684692
  0
VERTEX
  8
1
 10
5835.423340
 20
684.171936
  0
VERTEX
  8
1
 10
5837.760742
 20
685.900513
  0
VERTEX
  8
1
 10
5839.989746
 20
687.766846
  0
VERTEX
  8
1
 10
5842.084961
 20
689.773071
  0
VERTEX
  8
1
 10
5844.020996
 20
691.921631
  0
VERTEX
  8
1
 10
5845.771484
 20
694.214600
  0
VERTEX
  8
1
 10
5847.205566
 20
696.262512
  0
SEQEND
  0
POLYLINE
  8
1
 66
1
 70
    0
  0
VERTEX
  8
1
 10
5801.805664
 20
254.737534
  0
VERTEX
  8
1
 10
5801.805664
 20
257.237488
  0
VERTEX
  8
1
 10
5801.572754
 20
277.613739
  0
VERTEX
  8
1
 10
5801.077148
 20
293.909790
  0
VERTEX
  8
1
 10
5800.341797
 20
310.200256
  0
VERTEX
  8
1
 10
5799.400391
 20
326.484009
  0
VERTEX
  8
1
 10
5797.028809
 20
359.026703
  0
VERTEX
  8
1
 10
5795.312500
 20
379.333038
  0
VERTEX
  8
1
 10
5789.409668
 20
444.260498
  0
VERTEX
  8
1
 10
5786.682129
 20
476.728180
  0
VERTEX
  8
1
 10
5784.440918
 20
509.223572
  0
VERTEX
  8
1
 10
5783.582031
 20
525.487488
  0
VERTEX
  8
1
 10
5782.541504
 20
554.738831
  0
VERTEX
  8
1
 10
5781.966797
 20
588.194397
  0
VERTEX
  8
1
 10
5781.854980
 20
602.759583
  0
VERTEX
  8
1
 10
5781.805664
 20
669.337524
  0
VERTEX
  8
1
 10
5781.805664
 20
671.737488
  0
SEQEND
  0
POLYLINE
  8
1
 66
1
 70
    0
  0
VERTEX
  8
1
 10
5801.805664
 20
1.737503
  0
VERTEX
  8
1
 10
5801.805664
 20
46.237503
  0
VERTEX
  8
1
 10
5801.805664
 20
48.737503
  0
VERTEX
  8
1
 10
5801.805664
 20
150.487503
  0
VERTEX
  8
1
 10
5801.805664
 20
252.237503
  0
VERTEX
  8
1
 10
5801.805664
 20
254.737534
  0
SEQEND
  0
POLYLINE
  8
1
 66
1
 70
    0
  0
VERTEX
  8
1
 10
5907.500000
 20
1.737503
  0
VERTEX
  8
1
 10
5894.592285
 20
1.737503
  0
VERTEX
  8
1
 10
5829.244629
 20
1.737503
  0
VERTEX
  8
1
 10
5826.844727
 20
1.737503
  0
VERTEX
  8
1
 10
5801.805664
 20
1.737503
  0
SEQEND
  0
POLYLINE
  8
1
 66
1
 70
    0
  0
VERTEX
  8
1
 10
6052.193848
 20
1.737503
  0
VERTEX
  8
1
 10
6049.693848
 20
1.737503
  0
VERTEX
  8
1
 10
6004.808105
 20
1.737503
  0
VERTEX
  8
1
 10
5939.519043
 20
1.737503
  0
VERTEX
  8
1
 10
5907.500000
 20
1.737503
  0
SEQEND
  0
POLYLINE
  8
1
 66
1
 70
    0
  0
VERTEX
  8
1
 10
6013.052246
 20
259.734985
  0
VERTEX
  8
1
 10
6013.930664
 20
257.394531
  0
VERTEX
  8
1
 10
6015.924805
 20
252.008896
  0
VERTEX
  8
1
 10
6020.955566
 20
237.680740
  0
VERTEX
  8
1
 10
6025.194336
 20
224.632278
  0
VERTEX
  8
1
 10
6029.499512
 20
210.226028
  0
VERTEX
  8
1
 10
6033.082031
 20
197.108765
  0
VERTEX
  8
1
 10
6036.671875
 20
182.607513
  0
VERTEX
  8
1
 10
6039.607422
 20
169.404297
  0
VERTEX
  8
1
 10
6042.490234
 20
154.790466
  0
VERTEX
  8
1
 10
6043.745117
 20
147.740799
  0
VERTEX
  8
1
 10
6046.072754
 20
133.083908
  0
VERTEX
  8
1
 10
6047.863281
 20
119.746170
  0
VERTEX
  8
1
 10
6049.474609
 20
105.058823
  0
VERTEX
  8
1
 10
6050.615234
 20
91.688431
  0
VERTEX
  8
1
 10
6051.514160
 20
76.954346
  0
VERTEX
  8
1
 10
6052.007324
 20
63.534897
  0
VERTEX
  8
1
 10
6052.193848
 20
48.737503
  0
VERTEX
  8
1
 10
6052.193848
 20
46.237503
  0
VERTEX
  8
1
 10
6052.193848
 20
43.737503
  0
VERTEX
  8
1
 10
6052.193848
 20
23.987503
  0
VERTEX
  8
1
 10
6052.193848
 20
4.237503
  0
VERTEX
  8
1
 10
6052.193848
 20
1.737503
  0
SEQEND
  0
POLYLINE
  8
1
 66
1
 70
    0
  0
VERTEX
  8
1
 10
6028.082031
 20
476.737518
  0
VERTEX
  8
1
 10
6027.692383
 20
474.268036
  0
VERTEX
  8
1
 10
6015.691895
 20
403.327271
  0
VERTEX
  8
1
 10
6012.717773
 20
383.069305
  0
VERTEX
  8
1
 10
6010.957520
 20
368.684509
  0
VERTEX
  8
1
 10
6010.247559
 20
361.913879
  0
VERTEX
  8
1
 10
6009.004883
 20
347.572205
  0
VERTEX
  8
1
 10
6008.287109
 20
335.730957
  0
VERTEX
  8
1
 10
6007.877930
 20
323.191406
  0
VERTEX
  8
1
 10
6007.847168
 20
312.742004
  0
VERTEX
  8
1
 10
6008.169922
 20
301.320251
  0
VERTEX
  8
1
 10
6008.750000
 20
291.791473
  0
VERTEX
  8
1
 10
6009.759766
 20
281.143982
  0
VERTEX
  8
1
 10
6010.913574
 20
272.273285
  0
VERTEX
  8
1
 10
6012.593262
 20
262.192474
  0
VERTEX
  8
1
 10
6013.052246
 20
259.734985
  0
SEQEND
  0
POLYLINE
  8
1
 66
1
 70
    0
  0
VERTEX
  8
1
 10
5995.561523
 20
648.343811
  0
VERTEX
  8
1
 10
5994.665527
 20
646.117310
  0
VERTEX
  8
1
 10
5991.622559
 20
638.339478
  0
VERTEX
  8
1
 10
5988.747559
 20
630.497437
  0
VERTEX
  8
1
 10
5986.062500
 20
622.587158
  0
VERTEX
  8
1
 10
5983.591309
 20
614.604431
  0
VERTEX
  8
1
 10
5981.355469
 20
606.545166
  0
VERTEX
  8
1
 10
5979.378906
 20
598.405273
  0
VERTEX
  8
1
 10
5977.306152
 20
588.110779
  0
VERTEX
  8
1
 10
5975.997070
 20
579.781372
  0
VERTEX
  8
1
 10
5975.034668
 20
571.391663
  0
VERTEX
  8
1
 10
5974.455566
 20
562.971069
  0
VERTEX
  8
1
 10
5974.296875
 20
554.549133
  0
VERTEX
  8
1
 10
5974.595215
 20
546.155334
  0
VERTEX
  8
1
 10
5975.387207
 20
537.819153
  0
VERTEX
  8
1
 10
5976.709961
 20
529.570129
  0
VERTEX
  8
1
 10
5977.582031
 20
525.487488
  0
VERTEX
  8
1
 10
5978.697266
 20
521.238525
  0
VERTEX
  8
1
 10
5980.067383
 20
517.066467
  0
VERTEX
  8
1
 10
5981.693359
 20
512.981567
  0
VERTEX
  8
1
 10
5983.574219
 20
508.994141
  0
VERTEX
  8
1
 10
5985.709961
 20
505.114502
  0
VERTEX
  8
1
 10
5988.101074
 20
501.352936
  0
VERTEX
  8
1
 10
5990.746582
 20
497.719727
  0
VERTEX
  8
1
 10
5995.192383
 20
492.533203
  0
VERTEX
  8
1
 10
5998.382812
 20
489.357849
  0
VERTEX
  8
1
 10
6001.791992
 20
486.394348
  0
VERTEX
  8
1
 10
6005.397461
 20
483.708313
  0
VERTEX
  8
1
 10
6009.177246
 20
481.365448
  0
VERTEX
  8
1
 10
6013.107910
 20
479.431305
  0
VERTEX
  8
1
 10
6017.166992
 20
477.971558
  0
VERTEX
  8
1
 10
6021.333008
 20
477.051758
  0
VERTEX
  8
1
 10
6023.448242
 20
476.814850
  0
VERTEX
  8
1
 10
6025.582031
 20
476.737488
  0
VERTEX
  8
1
 10
6028.082031
 20
476.737488
  0
SEQEND
  0
POLYLINE
  8
2
 66
1
 70
    0
  0
VERTEX
  8
2
 10
6177.938477
 20
689.586731
  0
VERTEX
  8
2
 10
6193.891602
 20
683.024780
  0
VERTEX
  8
2
 10
6209.844727
 20
676.462769
  0
VERTEX
  8
2
 10
6225.797852
 20
669.900818
  0
VERTEX
  8
2
 10
6241.750977
 20
663.338867
  0
VERTEX
  8
2
 10
6257.704102
 20
656.776855
  0
VERTEX
  8
2
 10
6273.657227
 20
650.214844
  0
SEQEND
  0
LINE
  8
2
 10
6158.062500
 20
601.808960
 11
6177.938477
 21
689.586853
  0
LINE
  8
2
 10
6158.062500
 20
691.809082
 11
6158.062500
 21
601.808960
  0
POLYLINE
  8
2
 66
1
 70
    0
  0
VERTEX
  8
2
 10
6124.045410
 20
697.562500
  0
VERTEX
  8
2
 10
6141.053711
 20
694.685730
  0
VERTEX
  8
2
 10
6158.062012
 20
691.808960
  0
SEQEND
  0
POLYLINE
  8
2
 66
1
 70
    0
  0
VERTEX
  8
2
 10
6057.045410
 20
672.437500
  0
VERTEX
  8
2
 10
6062.045410
 20
672.437500
  0
VERTEX
  8
2
 10
6064.445312
 20
672.437500
  0
VERTEX
  8
2
 10
6070.456055
 20
672.587830
  0
VERTEX
  8
2
 10
6076.452637
 20
673.061768
  0
VERTEX
  8
2
 10
6079.438965
 20
673.427734
  0
VERTEX
  8
2
 10
6085.693359
 20
674.498169
  0
VERTEX
  8
2
 10
6091.858398
 20
675.998169
  0
VERTEX
  8
2
 10
6096.401367
 20
677.422607
  0
VERTEX
  8
2
 10
6102.292480
 20
679.742554
  0
VERTEX
  8
2
 10
6105.151855
 20
681.101990
  0
VERTEX
  8
2
 10
6107.938965
 20
682.605347
  0
VERTEX
  8
2
 10
6111.959961
 20
685.147949
  0
VERTEX
  8
2
 10
6114.367676
 20
686.929565
  0
VERTEX
  8
2
 10
6116.661621
 20
688.856812
  0
VERTEX
  8
2
 10
6118.816895
 20
690.930054
  0
VERTEX
  8
2
 10
6120.808594
 20
693.149292
  0
VERTEX
  8
2
 10
6122.611328
 20
695.514648
  0
VERTEX
  8
2
 10
6124.045410
 20
697.562500
  0
SEQEND
  0
POLYLINE
  8
2
 66
1
 70
    0
  0
VERTEX
  8
2
 10
6077.045410
 20
254.437500
  0
VERTEX
  8
2
 10
6077.045410
 20
256.937500
  0
VERTEX
  8
2
 10
6076.812012
 20
277.363739
  0
VERTEX
  8
2
 10
6076.313965
 20
293.699768
  0
VERTEX
  8
2
 10
6075.576172
 20
310.030151
  0
VERTEX
  8
2
 10
6074.631348
 20
326.353821
  0
VERTEX
  8
2
 10
6072.252930
 20
358.976257
  0
VERTEX
  8
2
 10
6070.544434
 20
379.191162
  0
VERTEX
  8
2
 10
6064.673828
 20
443.826599
  0
VERTEX
  8
2
 10
6061.959473
 20
476.148132
  0
VERTEX
  8
2
 10
6059.724121
 20
508.497009
  0
VERTEX
  8
2
 10
6058.863770
 20
524.687500
  0
VERTEX
  8
2
 10
6058.268555
 20
539.130371
  0
VERTEX
  8
2
 10
6057.766602
 20
555.646484
  0
VERTEX
  8
2
 10
6057.208496
 20
588.694641
  0
VERTEX
  8
2
 10
6057.096680
 20
603.295715
  0
VERTEX
  8
2
 10
6057.045410
 20
670.037476
  0
VERTEX
  8
2
 10
6057.045410
 20
672.437500
  0
SEQEND
  0
POLYLINE
  8
2
 66
1
 70
    0
  0
VERTEX
  8
2
 10
6077.045410
 20
2.437561
  0
VERTEX
  8
2
 10
6077.045410
 20
45.437561
  0
VERTEX
  8
2
 10
6077.045410
 20
47.937500
  0
VERTEX
  8
2
 10
6077.045410
 20
149.937500
  0
VERTEX
  8
2
 10
6077.045410
 20
251.937500
  0
VERTEX
  8
2
 10
6077.045410
 20
254.437500
  0
SEQEND
  0
POLYLINE
  8
2
 66
1
 70
    0
  0
VERTEX
  8
2
 10
6186.500000
 20
2.437500
  0
VERTEX
  8
2
 10
6170.184570
 20
2.437500
  0
VERTEX
  8
2
 10
6105.236328
 20
2.437500
  0
VERTEX
  8
2
 10
6102.836426
 20
2.437500
  0
VERTEX
  8
2
 10
6077.045410
 20
2.437500
  0
SEQEND
  0
POLYLINE
  8
2
 66
1
 70
    0
  0
VERTEX
  8
2
 10
6334.954590
 20
2.437500
  0
VERTEX
  8
2
 10
6332.454590
 20
2.437500
  0
VERTEX
  8
2
 10
6283.786621
 20
2.437500
  0
VERTEX
  8
2
 10
6218.895508
 20
2.437500
  0
VERTEX
  8
2
 10
6186.500000
 20
2.437500
  0
SEQEND
  0
POLYLINE
  8
2
 66
1
 70
    0
  0
VERTEX
  8
2
 10
6295.817383
 20
259.435120
  0
VERTEX
  8
2
 10
6296.694336
 20
257.094116
  0
VERTEX
  8
2
 10
6298.712402
 20
251.631592
  0
VERTEX
  8
2
 10
6303.738281
 20
237.283066
  0
VERTEX
  8
2
 10
6307.973633
 20
224.214142
  0
VERTEX
  8
2
 10
6312.274902
 20
209.783737
  0
VERTEX
  8
2
 10
6315.854492
 20
196.642242
  0
VERTEX
  8
2
 10
6319.442383
 20
182.113220
  0
VERTEX
  8
2
 10
6322.375977
 20
168.882202
  0
VERTEX
  8
2
 10
6325.257324
 20
154.237183
  0
VERTEX
  8
2
 10
6326.507324
 20
147.194519
  0
VERTEX
  8
2
 10
6328.834961
 20
132.503296
  0
VERTEX
  8
2
 10
6330.624512
 20
119.135742
  0
VERTEX
  8
2
 10
6332.235840
 20
104.411026
  0
VERTEX
  8
2
 10
6333.375977
 20
91.007812
  0
VERTEX
  8
2
 10
6334.274902
 20
76.233383
  0
VERTEX
  8
2
 10
6334.768066
 20
62.778152
  0
VERTEX
  8
2
 10
6334.954590
 20
47.937500
  0
VERTEX
  8
2
 10
6334.954590
 20
45.437500
  0
VERTEX
  8
2
 10
6334.954590
 20
42.937500
  0
VERTEX
  8
2
 10
6334.954590
 20
23.937500
  0
VERTEX
  8
2
 10
6334.954590
 20
4.937500
  0
VERTEX
  8
2
 10
6334.954590
 20
2.437500
  0
SEQEND
  0
POLYLINE
  8
2
 66
1
 70
    0
  0
VERTEX
  8
2
 10
6310.863770
 20
475.437500
  0
VERTEX
  8
2
 10
6310.473633
 20
472.968140
  0
VERTEX
  8
2
 10
6305.651855
 20
444.287720
  0
VERTEX
  8
2
 10
6298.531250
 20
402.514008
  0
VERTEX
  8
2
 10
6295.547363
 20
382.250854
  0
VERTEX
  8
2
 10
6293.784180
 20
367.885956
  0
VERTEX
  8
2
 10
6293.107910
 20
361.476288
  0
VERTEX
  8
2
 10
6291.853027
 20
347.148499
  0
VERTEX
  8
2
 10
6291.123047
 20
335.297607
  0
VERTEX
  8
2
 10
6290.703613
 20
322.785767
  0
VERTEX
  8
2
 10
6290.663086
 20
312.334900
  0
VERTEX
  8
2
 10
6290.975098
 20
300.945770
  0
VERTEX
  8
2
 10
6291.546875
 20
291.418732
  0
VERTEX
  8
2
 10
6292.545410
 20
280.805878
  0
VERTEX
  8
2
 10
6293.692871
 20
271.938293
  0
VERTEX
  8
2
 10
6295.359863
 20
261.892883
  0
VERTEX
  8
2
 10
6295.817383
 20
259.435120
  0
SEQEND
  0
POLYLINE
  8
2
 66
1
 70
    0
  0
VERTEX
  8
2
 10
6273.657227
 20
650.214844
  0
VERTEX
  8
2
 10
6272.810547
 20
647.969238
  0
VERTEX
  8
2
 10
6267.273926
 20
632.452393
  0
VERTEX
  8
2
 10
6264.750000
 20
624.610840
  0
VERTEX
  8
2
 10
6262.420410
 20
616.706787
  0
VERTEX
  8
2
 10
6260.309082
 20
608.734985
  0
VERTEX
  8
2
 10
6258.438965
 20
600.689941
  0
VERTEX
  8
2
 10
6256.138672
 20
588.473755
  0
VERTEX
  8
2
 10
6254.946289
 20
579.957458
  0
VERTEX
  8
2
 10
6254.116211
 20
571.382812
  0
VERTEX
  8
2
 10
6253.688965
 20
562.783569
  0
VERTEX
  8
2
 10
6253.706543
 20
554.193420
  0
VERTEX
  8
2
 10
6254.209473
 20
545.646240
  0
VERTEX
  8
2
 10
6255.239746
 20
537.175659
  0
VERTEX
  8
2
 10
6256.838379
 20
528.815552
  0
VERTEX
  8
2
 10
6257.863770
 20
524.687500
  0
VERTEX
  8
2
 10
6259.075195
 20
520.598389
  0
VERTEX
  8
2
 10
6260.510254
 20
516.583435
  0
VERTEX
  8
2
 10
6262.168457
 20
512.651367
  0
VERTEX
  8
2
 10
6264.050781
 20
508.811035
  0
VERTEX
  8
2
 10
6266.157227
 20
505.071228
  0
VERTEX
  8
2
 10
6268.487793
 20
501.440796
  0
VERTEX
  8
2
 10
6271.042480
 20
497.928528
  0
VERTEX
  8
2
 10
6273.822266
 20
494.543274
  0
VERTEX
  8
2
 10
6276.827148
 20
491.293884
  0
VERTEX
  8
2
 10
6280.167969
 20
488.094360
  0
VERTEX
  8
2
 10
6283.726562
 20
485.113953
  0
VERTEX
  8
2
 10
6287.479492
 20
482.417023
  0
VERTEX
  8
2
 10
6291.404785
 20
480.067932
  0
VERTEX
  8
2
 10
6295.479004
 20
478.131104
  0
VERTEX
  8
2
 10
6299.678711
 20
476.670837
  0
VERTEX
  8
2
 10
6303.981445
 20
475.751526
  0
VERTEX
  8
2
 10
6306.164062
 20
475.514832
  0
VERTEX
  8
2
 10
6308.363770
 20
475.437500
  0
VERTEX
  8
2
 10
6310.863770
 20
475.437500
  0
SEQEND
  0
POLYLINE
  8
3
 66
1
 70
    0
  0
VERTEX
  8
3
 10
6462.063965
 20
690.084412
  0
VERTEX
  8
3
 10
6478.178223
 20
683.587219
  0
VERTEX
  8
3
 10
6494.292969
 20
677.090027
  0
VERTEX
  8
3
 10
6510.407227
 20
670.592834
  0
VERTEX
  8
3
 10
6526.521973
 20
664.095642
  0
VERTEX
  8
3
 10
6542.636230
 20
657.598511
  0
VERTEX
  8
3
 10
6558.750977
 20
651.101318
  0
SEQEND
  0
LINE
  8
3
 10
6442.187500
 20
602.306641
 11
6462.063965
 21
690.084229
  0
LINE
  8
3
 10
6442.187500
 20
692.306458
 11
6442.187500
 21
602.306641
  0
POLYLINE
  8
3
 66
1
 70
    0
  0
VERTEX
  8
3
 10
6407.884766
 20
697.862488
  0
VERTEX
  8
3
 10
6425.036133
 20
695.084595
  0
VERTEX
  8
3
 10
6442.187500
 20
692.306641
  0
SEQEND
  0
POLYLINE
  8
3
 66
1
 70
    0
  0
VERTEX
  8
3
 10
6339.284668
 20
672.137451
  0
VERTEX
  8
3
 10
6344.284668
 20
672.137451
  0
VERTEX
  8
3
 10
6346.684570
 20
672.137451
  0
VERTEX
  8
3
 10
6352.872070
 20
672.291565
  0
VERTEX
  8
3
 10
6359.044922
 20
672.777710
  0
VERTEX
  8
3
 10
6362.119141
 20
673.153381
  0
VERTEX
  8
3
 10
6368.533691
 20
674.248291
  0
VERTEX
  8
3
 10
6374.857910
 20
675.782898
  0
VERTEX
  8
3
 10
6379.517578
 20
677.240723
  0
VERTEX
  8
3
 10
6385.558594
 20
679.615295
  0
VERTEX
  8
3
 10
6388.491211
 20
681.007019
  0
VERTEX
  8
3
 10
6391.350098
 20
682.546082
  0
VERTEX
  8
3
 10
6395.475586
 20
685.148987
  0
VERTEX
  8
3
 10
6397.957031
 20
686.980774
  0
VERTEX
  8
3
 10
6400.320801
 20
688.962952
  0
VERTEX
  8
3
 10
6402.541504
 20
691.095825
  0
VERTEX
  8
3
 10
6404.593750
 20
693.379639
  0
VERTEX
  8
3
 10
6406.450684
 20
695.814636
  0
VERTEX
  8
3
 10
6407.884766
 20
697.862488
  0
SEQEND
  0
POLYLINE
  8
3
 66
1
 70
    0
  0
VERTEX
  8
3
 10
6359.284668
 20
253.137527
  0
VERTEX
  8
3
 10
6359.284668
 20
255.637497
  0
VERTEX
  8
3
 10
6359.050293
 20
276.113617
  0
VERTEX
  8
3
 10
6358.550781
 20
292.489532
  0
VERTEX
  8
3
 10
6357.810059
 20
308.859802
  0
VERTEX
  8
3
 10
6356.861816
 20
325.223267
  0
VERTEX
  8
3
 10
6354.476562
 20
357.925323
  0
VERTEX
  8
3
 10
6352.932617
 20
376.260620
  0
VERTEX
  8
3
 10
6347.026855
 20
441.399597
  0
VERTEX
  8
3
 10
6344.283203
 20
473.971924
  0
VERTEX
  8
3
 10
6342.018555
 20
506.571533
  0
VERTEX
  8
3
 10
6341.145020
 20
522.887512
  0
VERTEX
  8
3
 10
6340.532715
 20
537.623657
  0
VERTEX
  8
3
 10
6340.017578
 20
554.475220
  0
VERTEX
  8
3
 10
6339.447266
 20
588.194885
  0
VERTEX
  8
3
 10
6339.336426
 20
602.831848
  0
VERTEX
  8
3
 10
6339.284668
 20
669.737488
  0
VERTEX
  8
3
 10
6339.284668
 20
672.137451
  0
SEQEND
  0
POLYLINE
  8
3
 66
1
 70
    0
  0
VERTEX
  8
3
 10
6359.284668
 20
2.137497
  0
VERTEX
  8
3
 10
6359.284668
 20
43.637497
  0
VERTEX
  8
3
 10
6359.284668
 20
46.137497
  0
VERTEX
  8
3
 10
6359.284668
 20
148.387497
  0
VERTEX
  8
3
 10
6359.284668
 20
250.637497
  0
VERTEX
  8
3
 10
6359.284668
 20
253.137527
  0
SEQEND
  0
POLYLINE
  8
3
 66
1
 70
    0
  0
VERTEX
  8
3
 10
6473.500000
 20
2.137497
  0
VERTEX
  8
3
 10
6453.936523
 20
2.137497
  0
VERTEX
  8
3
 10
6388.227539
 20
2.137497
  0
VERTEX
  8
3
 10
6385.827637
 20
2.137497
  0
VERTEX
  8
3
 10
6359.284668
 20
2.137497
  0
SEQEND
  0
POLYLINE
  8
3
 66
1
 70
    0
  0
VERTEX
  8
3
 10
6624.714844
 20
2.137497
  0
VERTEX
  8
3
 10
6622.214844
 20
2.137497
  0
VERTEX
  8
3
 10
6570.923828
 20
2.137497
  0
VERTEX
  8
3
 10
6505.271484
 20
2.137497
  0
VERTEX
  8
3
 10
6473.500000
 20
2.137497
  0
SEQEND
  0
POLYLINE
  8
3
 66
1
 70
    0
  0
VERTEX
  8
3
 10
6587.582031
 20
258.135284
  0
VERTEX
  8
3
 10
6588.424316
 20
255.781403
  0
VERTEX
  8
3
 10
6589.886230
 20
251.649292
  0
VERTEX
  8
3
 10
6594.775879
 20
237.105423
  0
VERTEX
  8
3
 10
6598.866211
 20
223.926285
  0
VERTEX
  8
3
 10
6603.051758
 20
209.230759
  0
VERTEX
  8
3
 10
6606.509766
 20
195.910553
  0
VERTEX
  8
3
 10
6609.997559
 20
181.048386
  0
VERTEX
  8
3
 10
6612.828125
 20
167.571747
  0
VERTEX
  8
3
 10
6615.621582
 20
152.527191
  0
VERTEX
  8
3
 10
6616.290527
 20
148.583206
  0
VERTEX
  8
3
 10
6618.617676
 20
133.437073
  0
VERTEX
  8
3
 10
6620.387207
 20
119.796814
  0
VERTEX
  8
3
 10
6622.001953
 20
104.556091
  0
VERTEX
  8
3
 10
6623.132812
 20
90.819290
  0
VERTEX
  8
3
 10
6624.035645
 20
75.467438
  0
VERTEX
  8
3
 10
6624.526367
 20
61.617355
  0
VERTEX
  8
3
 10
6624.714844
 20
46.137497
  0
VERTEX
  8
3
 10
6624.714844
 20
43.637497
  0
VERTEX
  8
3
 10
6624.714844
 20
41.137497
  0
VERTEX
  8
3
 10
6624.714844
 20
22.887497
  0
VERTEX
  8
3
 10
6624.714844
 20
4.637497
  0
VERTEX
  8
3
 10
6624.714844
 20
2.137497
  0
SEQEND
  0
POLYLINE
  8
3
 66
1
 70
    0
  0
VERTEX
  8
3
 10
6600.645020
 20
473.137512
  0
VERTEX
  8
3
 10
6600.276367
 20
470.664795
  0
VERTEX
  8
3
 10
6589.048828
 20
397.744659
  0
VERTEX
  8
3
 10
6586.860840
 20
380.771698
  0
VERTEX
  8
3
 10
6585.273926
 20
366.003662
  0
VERTEX
  8
3
 10
6584.041504
 20
351.463196
  0
VERTEX
  8
3
 10
6583.252930
 20
338.593018
  0
VERTEX
  8
3
 10
6582.786621
 20
325.326385
  0
VERTEX
  8
3
 10
6582.702637
 20
314.042267
  0
VERTEX
  8
3
 10
6582.964355
 20
302.035339
  0
VERTEX
  8
3
 10
6583.502441
 20
291.781555
  0
VERTEX
  8
3
 10
6584.443359
 20
280.637115
  0
VERTEX
  8
3
 10
6585.562988
 20
271.114777
  0
VERTEX
  8
3
 10
6587.161133
 20
260.599609
  0
VERTEX
  8
3
 10
6587.582031
 20
258.135284
  0
SEQEND
  0
POLYLINE
  8
3
 66
1
 70
    0
  0
VERTEX
  8
3
 10
6558.750977
 20
651.101318
  0
VERTEX
  8
3
 10
6557.977051
 20
648.829468
  0
VERTEX
  8
3
 10
6555.341797
 20
640.868713
  0
VERTEX
  8
3
 10
6552.860840
 20
632.858582
  0
VERTEX
  8
3
 10
6550.555176
 20
624.795471
  0
VERTEX
  8
3
 10
6548.448730
 20
616.675781
  0
VERTEX
  8
3
 10
6546.562988
 20
608.495728
  0
VERTEX
  8
3
 10
6544.920410
 20
600.251770
  0
VERTEX
  8
3
 10
6542.962402
 20
587.757996
  0
VERTEX
  8
3
 10
6542.028809
 20
579.348328
  0
VERTEX
  8
3
 10
6541.428223
 20
570.894775
  0
VERTEX
  8
3
 10
6541.194824
 20
562.426208
  0
VERTEX
  8
3
 10
6541.362793
 20
553.971741
  0
VERTEX
  8
3
 10
6541.965820
 20
545.560242
  0
VERTEX
  8
3
 10
6543.037598
 20
537.220886
  0
VERTEX
  8
3
 10
6544.612793
 20
528.982483
  0
VERTEX
  8
3
 10
6546.145020
 20
522.887512
  0
VERTEX
  8
3
 10
6547.420410
 20
518.734497
  0
VERTEX
  8
3
 10
6548.925293
 20
514.659546
  0
VERTEX
  8
3
 10
6550.658691
 20
510.671692
  0
VERTEX
  8
3
 10
6552.620117
 20
506.779938
  0
VERTEX
  8
3
 10
6554.809082
 20
502.993439
  0
VERTEX
  8
3
 10
6557.225098
 20
499.321228
  0
VERTEX
  8
3
 10
6559.867676
 20
495.772400
  0
VERTEX
  8
3
 10
6562.735840
 20
492.356018
  0
VERTEX
  8
3
 10
6565.829102
 20
489.081116
  0
VERTEX
  8
3
 10
6569.060547
 20
486.038818
  0
VERTEX
  8
3
 10
6572.486328
 20
483.192810
  0
VERTEX
  8
3
 10
6576.086914
 20
480.596069
  0
VERTEX
  8
3
 10
6579.842773
 20
478.301636
  0
VERTEX
  8
3
 10
6583.734863
 20
476.362366
  0
VERTEX
  8
3
 10
6587.743164
 20
474.831360
  0
VERTEX
  8
3
 10
6591.848145
 20
473.761566
  0
VERTEX
  8
3
 10
6596.030762
 20
473.205994
  0
VERTEX
  8
3
 10
6598.145020
 20
473.137512
  0
VERTEX
  8
3
 10
6600.645020
 20
473.137512
  0
SEQEND
  0
POLYLINE
  8
4
 66
1
 70
    0
  0
VERTEX
  8
4
 10
6753.437988
 20
690.585815
  0
VERTEX
  8
4
 10
6769.713867
 20
684.155334
  0
VERTEX
  8
4
 10
6785.989746
 20
677.724854
  0
VERTEX
  8
4
 10
6802.265137
 20
671.294434
  0
VERTEX
  8
4
 10
6818.541016
 20
664.864014
  0
VERTEX
  8
4
 10
6834.816895
 20
658.433472
  0
VERTEX
  8
4
 10
6851.092285
 20
652.003052
  0
SEQEND
  0
LINE
  8
4
 10
6733.562012
 20
602.807983
 11
6753.437988
 21
690.585999
  0
LINE
  8
4
 10
6733.562012
 20
692.808228
 11
6733.562012
 21
602.807983
  0
POLYLINE
  8
4
 66
1
 70
    0
  0
VERTEX
  8
4
 10
6698.974121
 20
698.162537
  0
VERTEX
  8
4
 10
6716.268066
 20
695.485291
  0
VERTEX
  8
4
 10
6733.562012
 20
692.808044
  0
SEQEND
  0
POLYLINE
  8
4
 66
1
 70
    0
  0
VERTEX
  8
4
 10
6628.773926
 20
671.837524
  0
VERTEX
  8
4
 10
6633.773926
 20
671.837524
  0
VERTEX
  8
4
 10
6636.173828
 20
671.837524
  0
VERTEX
  8
4
 10
6642.540039
 20
671.991699
  0
VERTEX
  8
4
 10
6648.891602
 20
672.483032
  0
VERTEX
  8
4
 10
6652.054688
 20
672.865540
  0
VERTEX
  8
4
 10
6658.628906
 20
673.982422
  0
VERTEX
  8
4
 10
6665.110352
 20
675.552551
  0
VERTEX
  8
4
 10
6669.886230
 20
677.045410
  0
VERTEX
  8
4
 10
6676.078125
 20
679.477539
  0
VERTEX
  8
4
 10
6679.084473
 20
680.902893
  0
VERTEX
  8
4
 10
6682.015137
 20
682.479126
  0
VERTEX
  8
4
 10
6686.244141
 20
685.144714
  0
VERTEX
  8
4
 10
6688.798340
 20
687.028015
  0
VERTEX
  8
4
 10
6691.231445
 20
689.066406
  0
VERTEX
  8
4
 10
6693.517090
 20
691.260254
  0
VERTEX
  8
4
 10
6695.628906
 20
693.609558
  0
VERTEX
  8
4
 10
6697.540039
 20
696.114624
  0
VERTEX
  8
4
 10
6698.974121
 20
698.162537
  0
SEQEND
  0
POLYLINE
  8
4
 66
1
 70
    0
  0
VERTEX
  8
4
 10
6648.773926
 20
251.837494
  0
VERTEX
  8
4
 10
6648.773926
 20
254.337524
  0
VERTEX
  8
4
 10
6648.538086
 20
274.863525
  0
VERTEX
  8
4
 10
6648.036133
 20
291.279297
  0
VERTEX
  8
4
 10
6647.292480
 20
307.689392
  0
VERTEX
  8
4
 10
6646.340820
 20
324.092712
  0
VERTEX
  8
4
 10
6643.947754
 20
356.874359
  0
VERTEX
  8
4
 10
6642.411133
 20
375.126373
  0
VERTEX
  8
4
 10
6636.539551
 20
439.969971
  0
VERTEX
  8
4
 10
6633.810547
 20
472.394470
  0
VERTEX
  8
4
 10
6631.551758
 20
504.845886
  0
VERTEX
  8
4
 10
6630.677246
 20
521.087524
  0
VERTEX
  8
4
 10
6629.990234
 20
537.727783
  0
VERTEX
  8
4
 10
6629.492676
 20
554.378479
  0
VERTEX
  8
4
 10
6628.936523
 20
587.695190
  0
VERTEX
  8
4
 10
6628.816895
 20
604.044800
  0
VERTEX
  8
4
 10
6628.773926
 20
669.437500
  0
VERTEX
  8
4
 10
6628.773926
 20
671.837524
  0
SEQEND
  0
POLYLINE
  8
4
 66
1
 70
    0
  0
VERTEX
  8
4
 10
6648.773926
 20
1.837463
  0
VERTEX
  8
4
 10
6648.773926
 20
41.837463
  0
VERTEX
  8
4
 10
6648.773926
 20
44.337524
  0
VERTEX
  8
4
 10
6648.773926
 20
146.837524
  0
VERTEX
  8
4
 10
6648.773926
 20
249.337524
  0
VERTEX
  8
4
 10
6648.773926
 20
251.837494
  0
SEQEND
  0
POLYLINE
  8
4
 66
1
 70
    0
  0
VERTEX
  8
4
 10
6767.750000
 20
1.837524
  0
VERTEX
  8
4
 10
6743.614258
 20
1.837524
  0
VERTEX
  8
4
 10
6678.418945
 20
1.837524
  0
VERTEX
  8
4
 10
6676.019043
 20
1.837524
  0
VERTEX
  8
4
 10
6648.773926
 20
1.837524
  0
SEQEND
  0
POLYLINE
  8
4
 66
1
 70
    0
  0
VERTEX
  8
4
 10
6921.225586
 20
1.837524
  0
VERTEX
  8
4
 10
6918.725586
 20
1.837524
  0
VERTEX
  8
4
 10
6863.763184
 20
1.837524
  0
VERTEX
  8
4
 10
6798.622070
 20
1.837524
  0
VERTEX
  8
4
 10
6767.750000
 20
1.837524
  0
SEQEND
  0
POLYLINE
  8
4
 66
1
 70
    0
  0
VERTEX
  8
4
 10
6886.595703
 20
256.835388
  0
VERTEX
  8
4
 10
6887.396973
 20
254.467163
  0
VERTEX
  8
4
 10
6888.340820
 20
251.654297
  0
VERTEX
  8
4
 10
6893.044922
 20
236.924438
  0
VERTEX
  8
4
 10
6896.945312
 20
223.653351
  0
VERTEX
  8
4
 10
6900.966309
 20
208.694153
  0
VERTEX
  8
4
 10
6904.258301
 20
195.203430
  0
VERTEX
  8
4
 10
6907.598145
 20
179.997665
  0
VERTEX
  8
4
 10
6910.282715
 20
166.269562
  0
VERTEX
  8
4
 10
6912.940430
 20
150.799164
  0
VERTEX
  8
4
 10
6915.190918
 20
135.514633
  0
VERTEX
  8
4
 10
6916.917969
 20
121.613647
  0
VERTEX
  8
4
 10
6918.531250
 20
105.675903
  0
VERTEX
  8
4
 10
6919.641602
 20
91.518463
  0
VERTEX
  8
4
 10
6920.548828
 20
75.303223
  0
VERTEX
  8
4
 10
6921.034180
 20
60.860214
  0
VERTEX
  8
4
 10
6921.225586
 20
44.337524
  0
VERTEX
  8
4
 10
6921.225586
 20
41.837524
  0
VERTEX
  8
4
 10
6921.225586
 20
39.337524
  0
VERTEX
  8
4
 10
6921.225586
 20
21.837524
  0
VERTEX
  8
4
 10
6921.225586
 20
4.337524
  0
VERTEX
  8
4
 10
6921.225586
 20
1.837524
  0
SEQEND
  0
POLYLINE
  8
4
 66
1
 70
    0
  0
VERTEX
  8
4
 10
6897.177246
 20
470.837524
  0
VERTEX
  8
4
 10
6896.836914
 20
468.360779
  0
VERTEX
  8
4
 10
6891.208984
 20
428.109406
  0
VERTEX
  8
4
 10
6887.271973
 20
397.584473
  0
VERTEX
  8
4
 10
6885.306152
 20
379.480988
  0
VERTEX
  8
4
 10
6883.948242
 20
364.106201
  0
VERTEX
  8
4
 10
6883.516602
 20
358.246887
  0
VERTEX
  8
4
 10
6882.632324
 20
343.138336
  0
VERTEX
  8
4
 10
6882.155273
 20
329.480469
  0
VERTEX
  8
4
 10
6882.027832
 20
316.274719
  0
VERTEX
  8
4
 10
6882.236328
 20
304.101624
  0
VERTEX
  8
4
 10
6882.779297
 20
292.097504
  0
VERTEX
  8
4
 10
6883.613281
 20
280.921448
  0
VERTEX
  8
4
 10
6884.787109
 20
269.760559
  0
VERTEX
  8
4
 10
6886.218262
 20
259.306671
  0
VERTEX
  8
4
 10
6886.595703
 20
256.835388
  0
SEQEND
  0
POLYLINE
  8
4
 66
1
 70
    0
  0
VERTEX
  8
4
 10
6851.092285
 20
652.003052
  0
VERTEX
  8
4
 10
6850.341309
 20
649.723511
  0
VERTEX
  8
4
 10
6845.432617
 20
633.897705
  0
VERTEX
  8
4
 10
6843.219238
 20
625.913086
  0
VERTEX
  8
4
 10
6841.194824
 20
617.876465
  0
VERTEX
  8
4
 10
6839.380371
 20
609.784485
  0
VERTEX
  8
4
 10
6837.796875
 20
601.633911
  0
VERTEX
  8
4
 10
6836.465332
 20
593.421509
  0
VERTEX
  8
4
 10
6835.645020
 20
587.219727
  0
VERTEX
  8
4
 10
6834.808105
 20
578.899292
  0
VERTEX
  8
4
 10
6834.291016
 20
570.539062
  0
VERTEX
  8
4
 10
6834.125977
 20
562.166565
  0
VERTEX
  8
4
 10
6834.344238
 20
553.809448
  0
VERTEX
  8
4
 10
6834.976562
 20
545.495361
  0
VERTEX
  8
4
 10
6836.055664
 20
537.251953
  0
VERTEX
  8
4
 10
6837.611816
 20
529.106812
  0
VERTEX
  8
4
 10
6839.677246
 20
521.087524
  0
VERTEX
  8
4
 10
6840.980469
 20
517.042725
  0
VERTEX
  8
4
 10
6842.508301
 20
513.076294
  0
VERTEX
  8
4
 10
6844.257812
 20
509.196686
  0
VERTEX
  8
4
 10
6846.226074
 20
505.412354
  0
VERTEX
  8
4
 10
6848.409180
 20
501.731750
  0
VERTEX
  8
4
 10
6850.805176
 20
498.163269
  0
VERTEX
  8
4
 10
6853.409668
 20
494.715393
  0
VERTEX
  8
4
 10
6856.220703
 20
491.396515
  0
VERTEX
  8
4
 10
6860.815918
 20
486.678619
  0
VERTEX
  8
4
 10
6864.243652
 20
483.625732
  0
VERTEX
  8
4
 10
6867.863281
 20
480.782959
  0
VERTEX
  8
4
 10
6871.654297
 20
478.199738
  0
VERTEX
  8
4
 10
6875.597656
 20
475.925415
  0
VERTEX
  8
4
 10
6879.671875
 20
474.009338
  0
VERTEX
  8
4
 10
6883.857910
 20
472.500946
  0
VERTEX
  8
4
 10
6888.134766
 20
471.449615
  0
VERTEX
  8
4
 10
6892.482910
 20
470.904694
  0
VERTEX
  8
4
 10
6894.677246
 20
470.837524
  0
VERTEX
  8
4
 10
6897.177246
 20
470.837524
  0
SEQEND
  0
ENDSEC
  0
EOF
