  0
SECTION
  2
HEADER
  0
ENDSEC
  0
SECTION
  2
BLOCKS
  0
BLOCK
  8
1
  2
_001_38
 70
0
 10
0.000000
 20
0.000000
  0
LINE
  8
7
 10
259.642029
 20
175.718842
 11
261.511444
 21
175.998138
  0
TEXT
  8
2
 10
259.642029
 20
175.718842
 40
0.400000
  1
# 1
  0
TEXT
  8
2
 10
261.511444
 20
175.998138
 40
0.400000
  1
# 2
  0
POLYLINE
  8
1
 66
1
 70
    1
  0
VERTEX
  8
1
 10
294.012482
 20
166.285187
  0
VERTEX
  8
1
 10
268.173920
 20
187.532867
  0
VERTEX
  8
1
 10
259.393127
 20
194.419403
  0
VERTEX
  8
1
 10
251.180115
 20
200.530640
  0
VERTEX
  8
1
 10
243.686249
 20
205.659851
  0
VERTEX
  8
1
 10
237.062943
 20
209.600266
  0
VERTEX
  8
1
 10
234.125061
 20
211.060074
  0
VERTEX
  8
1
 10
231.461578
 20
212.145157
  0
VERTEX
  8
1
 10
229.091446
 20
212.829666
  0
VERTEX
  8
1
 10
227.033585
 20
213.087769
  0
VERTEX
  8
1
 10
225.306915
 20
212.893616
  0
VERTEX
  8
1
 10
223.930344
 20
212.221375
  0
VERTEX
  8
1
 10
222.922821
 20
211.045181
  0
VERTEX
  8
1
 10
222.285660
 20
209.305435
  0
VERTEX
  8
1
 10
222.025269
 20
207.051193
  0
VERTEX
  8
1
 10
222.112656
 20
204.322067
  0
VERTEX
  8
1
 10
222.518829
 20
201.157593
  0
VERTEX
  8
1
 10
223.214813
 20
197.597382
  0
VERTEX
  8
1
 10
224.171646
 20
193.680969
  0
VERTEX
  8
1
 10
226.751862
 20
184.937943
  0
VERTEX
  8
1
 10
230.027634
 20
175.245087
  0
VERTEX
  8
1
 10
237.738434
 20
154.276382
  0
VERTEX
  8
1
 10
241.916321
 20
160.629868
  0
VERTEX
  8
1
 10
244.782028
 20
164.614731
  0
VERTEX
  8
1
 10
247.768448
 20
168.223312
  0
VERTEX
  8
1
 10
250.923859
 20
171.305115
  0
VERTEX
  8
1
 10
252.580017
 20
172.601425
  0
VERTEX
  8
1
 10
254.296539
 20
173.709610
  0
VERTEX
  8
1
 10
256.079437
 20
174.610855
  0
VERTEX
  8
1
 10
257.830170
 20
175.260147
  0
VERTEX
  8
1
 10
259.642029
 20
175.718842
  0
VERTEX
  8
1
 10
261.511444
 20
175.998138
  0
VERTEX
  8
1
 10
263.434814
 20
176.109268
  0
VERTEX
  8
1
 10
267.429016
 20
175.871841
  0
VERTEX
  8
1
 10
271.595825
 20
175.096268
  0
VERTEX
  8
1
 10
275.906525
 20
173.872208
  0
VERTEX
  8
1
 10
280.332306
 20
172.289383
  0
VERTEX
  8
1
 10
284.844421
 20
170.437469
  0
SEQEND
  0
POINT
  8
2
 10
294.012482
 20
166.285187
  0
TEXT
  8
1
 10
294.012482
 20
166.285187
 40
0.400000
  1
# 3
  0
POINT
  8
3
 10
268.173920
 20
187.532867
  0
POINT
  8
3
 10
259.393127
 20
194.419403
  0
POINT
  8
3
 10
251.180115
 20
200.530640
  0
POINT
  8
3
 10
243.686249
 20
205.659851
  0
POINT
  8
3
 10
237.062943
 20
209.600266
  0
POINT
  8
3
 10
234.125061
 20
211.060074
  0
POINT
  8
3
 10
231.461578
 20
212.145157
  0
POINT
  8
3
 10
229.091446
 20
212.829666
  0
POINT
  8
3
 10
227.033585
 20
213.087769
  0
POINT
  8
3
 10
225.306915
 20
212.893616
  0
POINT
  8
3
 10
223.930344
 20
212.221375
  0
POINT
  8
3
 10
222.922821
 20
211.045181
  0
POINT
  8
3
 10
222.285660
 20
209.305435
  0
POINT
  8
3
 10
222.025269
 20
207.051193
  0
POINT
  8
3
 10
222.112656
 20
204.322067
  0
POINT
  8
3
 10
222.518829
 20
201.157593
  0
POINT
  8
3
 10
223.214813
 20
197.597382
  0
POINT
  8
3
 10
224.171646
 20
193.680969
  0
POINT
  8
3
 10
226.751862
 20
184.937943
  0
POINT
  8
3
 10
230.027634
 20
175.245087
  0
POINT
  8
2
 10
237.738434
 20
154.276382
  0
TEXT
  8
1
 10
237.738434
 20
154.276382
 40
0.400000
  1
# 4
  0
POINT
  8
3
 10
241.916321
 20
160.629868
  0
POINT
  8
3
 10
244.782028
 20
164.614731
  0
POINT
  8
3
 10
247.768448
 20
168.223312
  0
POINT
  8
3
 10
250.923859
 20
171.305115
  0
POINT
  8
3
 10
252.580017
 20
172.601425
  0
POINT
  8
3
 10
254.296539
 20
173.709610
  0
POINT
  8
3
 10
256.079437
 20
174.610855
  0
POINT
  8
3
 10
257.830170
 20
175.260147
  0
POINT
  8
3
 10
259.642029
 20
175.718842
  0
POINT
  8
3
 10
261.511444
 20
175.998138
  0
POINT
  8
3
 10
263.434814
 20
176.109268
  0
POINT
  8
3
 10
267.429016
 20
175.871841
  0
POINT
  8
3
 10
271.595825
 20
175.096268
  0
POINT
  8
3
 10
275.906525
 20
173.872208
  0
POINT
  8
3
 10
280.332306
 20
172.289383
  0
POINT
  8
3
 10
284.844421
 20
170.437469
  0
TEXT
  8
1
 10
25.964203
 20
17.571884
 40
25.000000
 50
8.497329
  1
Size:38
  0
TEXT
  8
1
 10
26.001144
 20
17.324629
 40
25.000000
 50
8.497329
  1
Piece Name:001-NN
  0
TEXT
  8
1
 10
26.038086
 20
17.077375
 40
25.000000
 50
8.497329
  1
Annotation:NN
  0
TEXT
  8
1
 10
26.075027
 20
16.830120
 40
25.000000
 50
8.497329
  1
Category:0
  0
TEXT
  8
1
 10
26.111969
 20
16.582865
 40
25.000000
 50
8.497329
  1
Quantity:1
  0
ENDBLK
  0
ENDSEC
  0
SECTION
  2
ENTITIES
  0
TEXT
  8
1
 10
25.964203
 20
17.571884
 40
25.000000
  1
Style Name:
  0
TEXT
  8
1
 10
26.001144
 20
17.324629
 40
25.000000
  1
Creation Date:13.08.2020
  0
TEXT
  8
1
 10
26.038086
 20
17.077375
 40
25.000000
  1
Creation Time:16:33
  0
TEXT
  8
1
 10
26.075027
 20
16.830120
 40
25.000000
  1
Author:GRAFIS V11.00
  0
TEXT
  8
1
 10
26.111969
 20
16.582865
 40
25.000000
  1
Sample Size:38
  0
TEXT
  8
1
 10
26.148911
 20
16.335609
 40
25.000000
  1
Units:METRIC
  0
TEXT
  8
1
 10
26.185852
 20
16.088354
 40
25.000000
  1
Grade Rule Table:noname_001
  0
INSERT
  8
1
  2
_001_38
 10
0.000000
 20
0.000000
  0
ENDSEC
  0
EOF
