  0
SECTION
  2
HEADER
  0
ENDSEC
  0
SECTION
  2
BLOCKS
  0
BLOCK
  8
1
  2
_001_38
 70
0
 10
0.000000
 20
0.000000
  0
LINE
  8
7
 10
261.511414
 20
175.998093
 11
259.641998
 21
175.718796
  0
POINT
  8
2
 10
261.511414
 20
175.998093
  0
TEXT
  8
2
 10
261.511414
 20
175.998093
 40
0.400000
  1
# 1
  0
POINT
  8
2
 10
259.641998
 20
175.718796
  0
TEXT
  8
2
 10
259.641998
 20
175.718796
 40
0.400000
  1
# 2
  0
POLYLINE
  8
1
 66
1
 70
    1
  0
VERTEX
  8
1
 10
294.012390
 20
166.285095
  0
VERTEX
  8
1
 10
268.173889
 20
187.532806
  0
VERTEX
  8
1
 10
259.393097
 20
194.419403
  0
VERTEX
  8
1
 10
251.180099
 20
200.530594
  0
VERTEX
  8
1
 10
243.686203
 20
205.659805
  0
VERTEX
  8
1
 10
237.062897
 20
209.600204
  0
VERTEX
  8
1
 10
234.125000
 20
211.059998
  0
VERTEX
  8
1
 10
231.461502
 20
212.145096
  0
VERTEX
  8
1
 10
229.091400
 20
212.829605
  0
VERTEX
  8
1
 10
227.033493
 20
213.087708
  0
VERTEX
  8
1
 10
225.306900
 20
212.893600
  0
VERTEX
  8
1
 10
223.930298
 20
212.221298
  0
VERTEX
  8
1
 10
222.922806
 20
211.045105
  0
VERTEX
  8
1
 10
222.285599
 20
209.305405
  0
VERTEX
  8
1
 10
222.025208
 20
207.051102
  0
VERTEX
  8
1
 10
222.112595
 20
204.322006
  0
VERTEX
  8
1
 10
222.518799
 20
201.157501
  0
VERTEX
  8
1
 10
223.214798
 20
197.597305
  0
VERTEX
  8
1
 10
224.171600
 20
193.680893
  0
VERTEX
  8
1
 10
226.751801
 20
184.937897
  0
VERTEX
  8
1
 10
230.027603
 20
175.244995
  0
VERTEX
  8
1
 10
237.738403
 20
154.276306
  0
VERTEX
  8
1
 10
241.916306
 20
160.629807
  0
VERTEX
  8
1
 10
244.781998
 20
164.614700
  0
VERTEX
  8
1
 10
247.768402
 20
168.223297
  0
VERTEX
  8
1
 10
250.923798
 20
171.305099
  0
VERTEX
  8
1
 10
252.580002
 20
172.601395
  0
VERTEX
  8
1
 10
254.296494
 20
173.709595
  0
VERTEX
  8
1
 10
256.079407
 20
174.610794
  0
VERTEX
  8
1
 10
257.830109
 20
175.260101
  0
VERTEX
  8
1
 10
259.641998
 20
175.718796
  0
VERTEX
  8
1
 10
261.511414
 20
175.998093
  0
VERTEX
  8
1
 10
263.434814
 20
176.109207
  0
VERTEX
  8
1
 10
267.428986
 20
175.871796
  0
VERTEX
  8
1
 10
271.595795
 20
175.096207
  0
VERTEX
  8
1
 10
275.906494
 20
173.872192
  0
VERTEX
  8
1
 10
280.332306
 20
172.289307
  0
VERTEX
  8
1
 10
284.844391
 20
170.437393
  0
SEQEND
  0
POINT
  8
2
 10
294.012390
 20
166.285095
  0
TEXT
  8
2
 10
294.012390
 20
166.285095
 40
0.400000
  1
# 3
  0
POINT
  8
3
 10
268.173889
 20
187.532806
  0
POINT
  8
3
 10
259.393097
 20
194.419403
  0
POINT
  8
3
 10
251.180099
 20
200.530594
  0
POINT
  8
3
 10
243.686203
 20
205.659805
  0
POINT
  8
2
 10
237.062897
 20
209.600204
  0
TEXT
  8
2
 10
237.062897
 20
209.600204
 40
0.400000
  1
# 4
  0
POINT
  8
3
 10
234.125000
 20
211.059998
  0
POINT
  8
3
 10
231.461502
 20
212.145096
  0
POINT
  8
3
 10
229.091400
 20
212.829605
  0
POINT
  8
3
 10
227.033493
 20
213.087708
  0
POINT
  8
3
 10
225.306900
 20
212.893600
  0
POINT
  8
2
 10
223.930298
 20
212.221298
  0
TEXT
  8
2
 10
223.930298
 20
212.221298
 40
0.400000
  1
# 5
  0
POINT
  8
3
 10
222.922806
 20
211.045105
  0
POINT
  8
3
 10
222.285599
 20
209.305405
  0
POINT
  8
3
 10
222.025208
 20
207.051102
  0
POINT
  8
3
 10
222.112595
 20
204.322006
  0
POINT
  8
2
 10
222.518799
 20
201.157501
  0
TEXT
  8
2
 10
222.518799
 20
201.157501
 40
0.400000
  1
# 6
  0
POINT
  8
3
 10
223.214798
 20
197.597305
  0
POINT
  8
3
 10
224.171600
 20
193.680893
  0
POINT
  8
3
 10
226.751801
 20
184.937897
  0
POINT
  8
3
 10
230.027603
 20
175.244995
  0
POINT
  8
2
 10
237.738403
 20
154.276306
  0
TEXT
  8
2
 10
237.738403
 20
154.276306
 40
0.400000
  1
# 7
  0
POINT
  8
3
 10
241.916306
 20
160.629807
  0
POINT
  8
3
 10
244.781998
 20
164.614700
  0
POINT
  8
3
 10
247.768402
 20
168.223297
  0
POINT
  8
2
 10
250.923798
 20
171.305099
  0
TEXT
  8
2
 10
250.923798
 20
171.305099
 40
0.400000
  1
# 8
  0
POINT
  8
3
 10
252.580002
 20
172.601395
  0
POINT
  8
3
 10
254.296494
 20
173.709595
  0
POINT
  8
3
 10
256.079407
 20
174.610794
  0
POINT
  8
3
 10
257.830109
 20
175.260101
  0
POINT
  8
2
 10
259.641998
 20
175.718796
  0
TEXT
  8
2
 10
259.641998
 20
175.718796
 40
0.400000
  1
# 9
  0
POINT
  8
3
 10
261.511414
 20
175.998093
  0
POINT
  8
3
 10
263.434814
 20
176.109207
  0
POINT
  8
3
 10
267.428986
 20
175.871796
  0
POINT
  8
2
 10
271.595795
 20
175.096207
  0
TEXT
  8
2
 10
271.595795
 20
175.096207
 40
0.400000
  1
# 10
  0
POINT
  8
3
 10
275.906494
 20
173.872192
  0
POINT
  8
3
 10
280.332306
 20
172.289307
  0
POINT
  8
3
 10
284.844391
 20
170.437393
  0
TEXT
  8
15
  1
Hello World
 10
241.939285
 20
172.476151
 40
4.722838
 50
33.941051
  0
POLYLINE
  8
84
 66
1
 70
    1
  0
VERTEX
  8
84
 10
294.012390
 20
166.285095
  0
VERTEX
  8
84
 10
268.173889
 20
187.532806
  0
VERTEX
  8
84
 10
259.393097
 20
194.419403
  0
VERTEX
  8
84
 10
251.180099
 20
200.530594
  0
VERTEX
  8
84
 10
243.686203
 20
205.659805
  0
VERTEX
  8
84
 10
237.062897
 20
209.600204
  0
VERTEX
  8
84
 10
234.125000
 20
211.059998
  0
VERTEX
  8
84
 10
231.461502
 20
212.145096
  0
VERTEX
  8
84
 10
229.091400
 20
212.829605
  0
VERTEX
  8
84
 10
227.033493
 20
213.087708
  0
VERTEX
  8
84
 10
225.306900
 20
212.893600
  0
VERTEX
  8
84
 10
223.930298
 20
212.221298
  0
VERTEX
  8
84
 10
222.922806
 20
211.045105
  0
VERTEX
  8
84
 10
222.285599
 20
209.305405
  0
VERTEX
  8
84
 10
222.025208
 20
207.051102
  0
VERTEX
  8
84
 10
222.112595
 20
204.322006
  0
VERTEX
  8
84
 10
222.518799
 20
201.157501
  0
VERTEX
  8
84
 10
223.214798
 20
197.597305
  0
VERTEX
  8
84
 10
224.171600
 20
193.680893
  0
VERTEX
  8
84
 10
226.751801
 20
184.937897
  0
VERTEX
  8
84
 10
230.027603
 20
175.244995
  0
VERTEX
  8
84
 10
237.738403
 20
154.276306
  0
VERTEX
  8
84
 10
241.916306
 20
160.629807
  0
VERTEX
  8
84
 10
244.781998
 20
164.614700
  0
VERTEX
  8
84
 10
247.768402
 20
168.223297
  0
VERTEX
  8
84
 10
250.923798
 20
171.305099
  0
VERTEX
  8
84
 10
252.580002
 20
172.601395
  0
VERTEX
  8
84
 10
254.296494
 20
173.709595
  0
VERTEX
  8
84
 10
256.079407
 20
174.610794
  0
VERTEX
  8
84
 10
257.830109
 20
175.260101
  0
VERTEX
  8
84
 10
259.641998
 20
175.718796
  0
VERTEX
  8
84
 10
261.511414
 20
175.998093
  0
VERTEX
  8
84
 10
263.434814
 20
176.109207
  0
VERTEX
  8
84
 10
267.428986
 20
175.871796
  0
VERTEX
  8
84
 10
271.595795
 20
175.096207
  0
VERTEX
  8
84
 10
275.906494
 20
173.872192
  0
VERTEX
  8
84
 10
280.332306
 20
172.289307
  0
VERTEX
  8
84
 10
284.844391
 20
170.437393
  0
SEQEND
  0
TEXT
  8
1
 10
26.151142
 20
17.599810
 40
25.000000
 50
-171.502686
  1
Size:38
  0
TEXT
  8
1
 10
26.114201
 20
17.847065
 40
25.000000
 50
-171.502686
  1
Piece Name:001-NN
  0
TEXT
  8
1
 10
26.077259
 20
18.094320
 40
25.000000
 50
-171.502686
  1
Quantity:1,0
  0
ENDBLK
  0
ENDSEC
  0
SECTION
  2
ENTITIES
  0
TEXT
  8
1
 10
26.151142
 20
17.599810
 40
25.000000
  1
Style Name:
  0
TEXT
  8
1
 10
26.114201
 20
17.847065
 40
25.000000
  1
Creation Date:14.08.2020
  0
TEXT
  8
1
 10
26.077259
 20
18.094320
 40
25.000000
  1
Creation Time:14:33
  0
TEXT
  8
1
 10
26.040318
 20
18.341574
 40
25.000000
  1
Author:GRAFIS V11.00
  0
TEXT
  8
1
 10
26.003376
 20
18.588829
 40
25.000000
  1
Sample Size:38
  0
TEXT
  8
1
 10
25.966434
 20
18.836084
 40
25.000000
  1
Units:METRIC
  0
TEXT
  8
1
 10
25.929493
 20
19.083340
 40
25.000000
  1
Grade Rule Table:test
  0
TEXT
  8
1
 10
25.892551
 20
19.330595
 40
25.000000
  1
ASTM/D13 VERSION:D6673-04
  0
INSERT
  8
1
  2
_001_38
 10
0.000000
 20
0.000000
  0
ENDSEC
  0
EOF
