  0
SECTION
  2
HEADER
  0
ENDSEC
  0
SECTION
  2
BLOCKS
  0
BLOCK
  8
1
  2
_002_48
 70
0
 10
0.000000
 20
0.000000
  0
POLYLINE
  8
1
 66
1
 70
    1
  0
VERTEX
  8
1
 10
4241.459961
 20
680.706665
  0
VERTEX
  8
1
 10
4240.380859
 20
685.323364
  0
VERTEX
  8
1
 10
4239.579590
 20
689.987915
  0
VERTEX
  8
1
 10
4238.864746
 20
696.423645
  0
VERTEX
  8
1
 10
4238.435059
 20
705.007751
  0
VERTEX
  8
1
 10
4238.353027
 20
713.599976
  0
VERTEX
  8
1
 10
4238.353027
 20
716.000000
  0
VERTEX
  8
1
 10
4221.842285
 20
709.529541
  0
VERTEX
  8
1
 10
4207.395508
 20
703.867798
  0
VERTEX
  8
1
 10
4190.884766
 20
697.397339
  0
VERTEX
  8
1
 10
4176.437500
 20
691.735718
  0
VERTEX
  8
1
 10
4170.246094
 20
689.309204
  0
VERTEX
  8
1
 10
4193.652832
 20
430.000000
  0
VERTEX
  8
1
 10
4069.344238
 20
658.771362
  0
VERTEX
  8
1
 10
4061.474121
 20
650.967346
  0
VERTEX
  8
1
 10
4050.456543
 20
640.041321
  0
VERTEX
  8
1
 10
4037.864990
 20
627.554443
  0
VERTEX
  8
1
 10
4026.847168
 20
616.628418
  0
VERTEX
  8
1
 10
4028.784180
 20
615.047729
  0
VERTEX
  8
1
 10
4035.298096
 20
609.644226
  0
VERTEX
  8
1
 10
4041.686035
 20
604.119995
  0
VERTEX
  8
1
 10
4047.915527
 20
598.425659
  0
VERTEX
  8
1
 10
4053.954102
 20
592.511597
  0
VERTEX
  8
1
 10
4059.769531
 20
586.328491
  0
VERTEX
  8
1
 10
4065.329590
 20
579.826782
  0
VERTEX
  8
1
 10
4070.601562
 20
572.957153
  0
VERTEX
  8
1
 10
4076.616943
 20
563.951904
  0
VERTEX
  8
1
 10
4080.896973
 20
556.371582
  0
VERTEX
  8
1
 10
4082.811523
 20
552.476807
  0
VERTEX
  8
1
 10
4084.552734
 20
548.522583
  0
VERTEX
  8
1
 10
4086.103271
 20
544.516418
  0
VERTEX
  8
1
 10
4087.445557
 20
540.465942
  0
VERTEX
  8
1
 10
4088.745117
 20
535.516846
  0
VERTEX
  8
1
 10
4089.436035
 20
532.262207
  0
VERTEX
  8
1
 10
4090.049316
 20
528.124268
  0
VERTEX
  8
1
 10
4090.384766
 20
523.972351
  0
VERTEX
  8
1
 10
4090.425049
 20
519.814087
  0
VERTEX
  8
1
 10
4090.152832
 20
515.657104
  0
VERTEX
  8
1
 10
4089.421387
 20
511.365967
  0
VERTEX
  8
1
 10
4088.131348
 20
507.194672
  0
VERTEX
  8
1
 10
4086.328125
 20
503.174591
  0
VERTEX
  8
1
 10
4084.056396
 20
499.337189
  0
VERTEX
  8
1
 10
4081.361328
 20
495.713898
  0
VERTEX
  8
1
 10
4078.287842
 20
492.336121
  0
VERTEX
  8
1
 10
4074.583984
 20
489.009247
  0
VERTEX
  8
1
 10
4070.548828
 20
486.159790
  0
VERTEX
  8
1
 10
4068.425781
 20
484.961731
  0
VERTEX
  8
1
 10
4066.242188
 20
483.940186
  0
VERTEX
  8
1
 10
4064.005371
 20
483.114197
  0
VERTEX
  8
1
 10
4061.723389
 20
482.502808
  0
VERTEX
  8
1
 10
4059.403320
 20
482.125092
  0
VERTEX
  8
1
 10
4057.052734
 20
482.000000
  0
VERTEX
  8
1
 10
4054.652832
 20
482.000000
  0
VERTEX
  8
1
 10
4055.043457
 20
479.530701
  0
VERTEX
  8
1
 10
4063.048096
 20
432.709961
  0
VERTEX
  8
1
 10
4066.586182
 20
412.014526
  0
VERTEX
  8
1
 10
4069.579590
 20
391.980133
  0
VERTEX
  8
1
 10
4071.323242
 20
377.933350
  0
VERTEX
  8
1
 10
4071.906982
 20
372.481171
  0
VERTEX
  8
1
 10
4073.162109
 20
358.471008
  0
VERTEX
  8
1
 10
4073.893799
 20
346.856384
  0
VERTEX
  8
1
 10
4074.311523
 20
334.679138
  0
VERTEX
  8
1
 10
4074.351562
 20
324.467499
  0
VERTEX
  8
1
 10
4074.039551
 20
313.409729
  0
VERTEX
  8
1
 10
4073.465576
 20
304.115662
  0
VERTEX
  8
1
 10
4072.469971
 20
293.826477
  0
VERTEX
  8
1
 10
4071.320068
 20
285.183472
  0
VERTEX
  8
1
 10
4069.659180
 20
275.453156
  0
VERTEX
  8
1
 10
4069.188965
 20
272.997772
  0
VERTEX
  8
1
 10
4068.299316
 20
270.661346
  0
VERTEX
  8
1
 10
4066.792969
 20
266.662018
  0
VERTEX
  8
1
 10
4061.734375
 20
252.551392
  0
VERTEX
  8
1
 10
4057.486328
 20
239.744965
  0
VERTEX
  8
1
 10
4053.165527
 20
225.586517
  0
VERTEX
  8
1
 10
4049.583252
 20
212.741211
  0
VERTEX
  8
1
 10
4045.986816
 20
198.516022
  0
VERTEX
  8
1
 10
4043.057861
 20
185.612823
  0
VERTEX
  8
1
 10
4040.176025
 20
171.301376
  0
VERTEX
  8
1
 10
4039.025635
 20
164.985046
  0
VERTEX
  8
1
 10
4036.689453
 20
150.658539
  0
VERTEX
  8
1
 10
4034.894531
 20
137.639420
  0
VERTEX
  8
1
 10
4033.278809
 20
123.309799
  0
VERTEX
  8
1
 10
4032.136719
 20
110.285080
  0
VERTEX
  8
1
 10
4031.236328
 20
95.935165
  0
VERTEX
  8
1
 10
4030.742676
 20
82.887589
  0
VERTEX
  8
1
 10
4030.556152
 20
68.500000
  0
VERTEX
  8
1
 10
4030.556152
 20
66.000000
  0
VERTEX
  8
1
 10
4030.556152
 20
63.500000
  0
VERTEX
  8
1
 10
4030.556152
 20
34.000000
  0
VERTEX
  8
1
 10
4030.556152
 20
4.500000
  0
VERTEX
  8
1
 10
4030.556152
 20
2.000000
  0
VERTEX
  8
1
 10
4033.056152
 20
2.000000
  0
VERTEX
  8
1
 10
4084.577393
 20
2.000000
  0
VERTEX
  8
1
 10
4150.524414
 20
2.000000
  0
VERTEX
  8
1
 10
4193.652832
 20
2.000000
  0
VERTEX
  8
1
 10
4202.089844
 20
2.000000
  0
VERTEX
  8
1
 10
4268.093262
 20
2.000000
  0
VERTEX
  8
1
 10
4270.493164
 20
2.000000
  0
VERTEX
  8
1
 10
4297.152832
 20
2.000000
  0
VERTEX
  8
1
 10
4297.152832
 20
66.000000
  0
VERTEX
  8
1
 10
4297.152832
 20
268.000000
  0
VERTEX
  8
1
 10
4297.152832
 20
430.000000
  0
VERTEX
  8
1
 10
4297.152832
 20
642.200012
  0
VERTEX
  8
1
 10
4292.152832
 20
642.200012
  0
VERTEX
  8
1
 10
4289.652832
 20
642.200012
  0
VERTEX
  8
1
 10
4284.993164
 20
642.463623
  0
VERTEX
  8
1
 10
4280.373535
 20
643.242126
  0
VERTEX
  8
1
 10
4275.829590
 20
644.493103
  0
VERTEX
  8
1
 10
4271.398438
 20
646.174194
  0
VERTEX
  8
1
 10
4267.115723
 20
648.242920
  0
VERTEX
  8
1
 10
4265.022949
 20
649.421265
  0
VERTEX
  8
1
 10
4261.000488
 20
652.034058
  0
VERTEX
  8
1
 10
4257.232422
 20
654.975464
  0
VERTEX
  8
1
 10
4253.763184
 20
658.230286
  0
VERTEX
  8
1
 10
4250.636719
 20
661.783020
  0
VERTEX
  8
1
 10
4247.896484
 20
665.618347
  0
VERTEX
  8
1
 10
4246.690918
 20
667.623901
  0
VERTEX
  8
1
 10
4244.582031
 20
671.808899
  0
VERTEX
  8
1
 10
4242.849609
 20
676.185791
  0
SEQEND
  0
POINT
  8
2
 10
4241.459961
 20
680.706665
  0
TEXT
  8
1
 10
4241.459961
 20
680.706665
 40
0.400000
  1
# 1
  0
POINT
  8
3
 10
4240.380859
 20
685.323364
  0
POINT
  8
3
 10
4239.579590
 20
689.987915
  0
POINT
  8
3
 10
4238.864746
 20
696.423645
  0
POINT
  8
3
 10
4238.435059
 20
705.007751
  0
POINT
  8
3
 10
4238.353027
 20
713.599976
  0
POINT
  8
2
 10
4238.353027
 20
716.000000
  0
TEXT
  8
1
 10
4238.353027
 20
716.000000
 40
0.400000
  1
# 2
  0
POINT
  8
3
 10
4221.842285
 20
709.529541
  0
POINT
  8
2
 10
4207.395508
 20
703.867798
  0
TEXT
  8
1
 10
4207.395508
 20
703.867798
 40
0.400000
  1
# 3
  0
POINT
  8
3
 10
4190.884766
 20
697.397339
  0
POINT
  8
3
 10
4176.437500
 20
691.735718
  0
POINT
  8
2
 10
4170.246094
 20
689.309204
  0
TEXT
  8
1
 10
4170.246094
 20
689.309204
 40
0.400000
  1
# 4
  0
POINT
  8
2
 10
4193.652832
 20
430.000000
  0
TEXT
  8
1
 10
4193.652832
 20
430.000000
 40
0.400000
  1
# 5
  0
POINT
  8
2
 10
4069.344238
 20
658.771362
  0
TEXT
  8
1
 10
4069.344238
 20
658.771362
 40
0.400000
  1
# 6
  0
POINT
  8
3
 10
4061.474121
 20
650.967346
  0
POINT
  8
3
 10
4050.456543
 20
640.041321
  0
POINT
  8
3
 10
4037.864990
 20
627.554443
  0
POINT
  8
2
 10
4026.847168
 20
616.628418
  0
TEXT
  8
1
 10
4026.847168
 20
616.628418
 40
0.400000
  1
# 7
  0
POINT
  8
3
 10
4028.784180
 20
615.047729
  0
POINT
  8
3
 10
4035.298096
 20
609.644226
  0
POINT
  8
3
 10
4041.686035
 20
604.119995
  0
POINT
  8
2
 10
4047.915527
 20
598.425659
  0
TEXT
  8
1
 10
4047.915527
 20
598.425659
 40
0.400000
  1
# 8
  0
POINT
  8
3
 10
4053.954102
 20
592.511597
  0
POINT
  8
3
 10
4059.769531
 20
586.328491
  0
POINT
  8
3
 10
4065.329590
 20
579.826782
  0
POINT
  8
2
 10
4070.601562
 20
572.957153
  0
TEXT
  8
1
 10
4070.601562
 20
572.957153
 40
0.400000
  1
# 9
  0
POINT
  8
3
 10
4076.616943
 20
563.951904
  0
POINT
  8
3
 10
4080.896973
 20
556.371582
  0
POINT
  8
3
 10
4082.811523
 20
552.476807
  0
POINT
  8
2
 10
4084.552734
 20
548.522583
  0
TEXT
  8
1
 10
4084.552734
 20
548.522583
 40
0.400000
  1
# 10
  0
POINT
  8
3
 10
4086.103271
 20
544.516418
  0
POINT
  8
3
 10
4087.445557
 20
540.465942
  0
POINT
  8
2
 10
4088.745117
 20
535.516846
  0
TEXT
  8
1
 10
4088.745117
 20
535.516846
 40
0.400000
  1
# 11
  0
POINT
  8
3
 10
4089.436035
 20
532.262207
  0
POINT
  8
3
 10
4090.049316
 20
528.124268
  0
POINT
  8
3
 10
4090.384766
 20
523.972351
  0
POINT
  8
3
 10
4090.425049
 20
519.814087
  0
POINT
  8
2
 10
4090.152832
 20
515.657104
  0
TEXT
  8
1
 10
4090.152832
 20
515.657104
 40
0.400000
  1
# 12
  0
POINT
  8
3
 10
4089.421387
 20
511.365967
  0
POINT
  8
3
 10
4088.131348
 20
507.194672
  0
POINT
  8
3
 10
4086.328125
 20
503.174591
  0
POINT
  8
3
 10
4084.056396
 20
499.337189
  0
POINT
  8
2
 10
4081.361328
 20
495.713898
  0
TEXT
  8
1
 10
4081.361328
 20
495.713898
 40
0.400000
  1
# 13
  0
POINT
  8
3
 10
4078.287842
 20
492.336121
  0
POINT
  8
3
 10
4074.583984
 20
489.009247
  0
POINT
  8
3
 10
4070.548828
 20
486.159790
  0
POINT
  8
3
 10
4068.425781
 20
484.961731
  0
POINT
  8
2
 10
4066.242188
 20
483.940186
  0
TEXT
  8
1
 10
4066.242188
 20
483.940186
 40
0.400000
  1
# 14
  0
POINT
  8
3
 10
4064.005371
 20
483.114197
  0
POINT
  8
3
 10
4061.723389
 20
482.502808
  0
POINT
  8
3
 10
4059.403320
 20
482.125092
  0
POINT
  8
3
 10
4057.052734
 20
482.000000
  0
POINT
  8
2
 10
4054.652832
 20
482.000000
  0
TEXT
  8
1
 10
4054.652832
 20
482.000000
 40
0.400000
  1
# 15
  0
POINT
  8
3
 10
4055.043457
 20
479.530701
  0
POINT
  8
2
 10
4063.048096
 20
432.709961
  0
TEXT
  8
1
 10
4063.048096
 20
432.709961
 40
0.400000
  1
# 16
  0
POINT
  8
3
 10
4066.586182
 20
412.014526
  0
POINT
  8
3
 10
4069.579590
 20
391.980133
  0
POINT
  8
2
 10
4071.323242
 20
377.933350
  0
TEXT
  8
1
 10
4071.323242
 20
377.933350
 40
0.400000
  1
# 17
  0
POINT
  8
3
 10
4071.906982
 20
372.481171
  0
POINT
  8
3
 10
4073.162109
 20
358.471008
  0
POINT
  8
3
 10
4073.893799
 20
346.856384
  0
POINT
  8
2
 10
4074.311523
 20
334.679138
  0
TEXT
  8
1
 10
4074.311523
 20
334.679138
 40
0.400000
  1
# 18
  0
POINT
  8
3
 10
4074.351562
 20
324.467499
  0
POINT
  8
3
 10
4074.039551
 20
313.409729
  0
POINT
  8
2
 10
4073.465576
 20
304.115662
  0
TEXT
  8
1
 10
4073.465576
 20
304.115662
 40
0.400000
  1
# 19
  0
POINT
  8
3
 10
4072.469971
 20
293.826477
  0
POINT
  8
3
 10
4071.320068
 20
285.183472
  0
POINT
  8
3
 10
4069.659180
 20
275.453156
  0
POINT
  8
2
 10
4069.188965
 20
272.997772
  0
TEXT
  8
1
 10
4069.188965
 20
272.997772
 40
0.400000
  1
# 20
  0
POINT
  8
3
 10
4068.299316
 20
270.661346
  0
POINT
  8
3
 10
4066.792969
 20
266.662018
  0
POINT
  8
3
 10
4061.734375
 20
252.551392
  0
POINT
  8
3
 10
4057.486328
 20
239.744965
  0
POINT
  8
2
 10
4053.165527
 20
225.586517
  0
TEXT
  8
1
 10
4053.165527
 20
225.586517
 40
0.400000
  1
# 21
  0
POINT
  8
3
 10
4049.583252
 20
212.741211
  0
POINT
  8
3
 10
4045.986816
 20
198.516022
  0
POINT
  8
3
 10
4043.057861
 20
185.612823
  0
POINT
  8
3
 10
4040.176025
 20
171.301376
  0
POINT
  8
3
 10
4039.025635
 20
164.985046
  0
POINT
  8
2
 10
4036.689453
 20
150.658539
  0
TEXT
  8
1
 10
4036.689453
 20
150.658539
 40
0.400000
  1
# 22
  0
POINT
  8
3
 10
4034.894531
 20
137.639420
  0
POINT
  8
3
 10
4033.278809
 20
123.309799
  0
POINT
  8
3
 10
4032.136719
 20
110.285080
  0
POINT
  8
3
 10
4031.236328
 20
95.935165
  0
POINT
  8
2
 10
4030.742676
 20
82.887589
  0
TEXT
  8
1
 10
4030.742676
 20
82.887589
 40
0.400000
  1
# 23
  0
POINT
  8
3
 10
4030.556152
 20
68.500000
  0
POINT
  8
3
 10
4030.556152
 20
66.000000
  0
POINT
  8
3
 10
4030.556152
 20
63.500000
  0
POINT
  8
3
 10
4030.556152
 20
34.000000
  0
POINT
  8
3
 10
4030.556152
 20
4.500000
  0
POINT
  8
2
 10
4030.556152
 20
2.000000
  0
TEXT
  8
1
 10
4030.556152
 20
2.000000
 40
0.400000
  1
# 24
  0
POINT
  8
3
 10
4033.056152
 20
2.000000
  0
POINT
  8
3
 10
4084.577393
 20
2.000000
  0
POINT
  8
3
 10
4150.524414
 20
2.000000
  0
POINT
  8
2
 10
4193.652832
 20
2.000000
  0
TEXT
  8
1
 10
4193.652832
 20
2.000000
 40
0.400000
  1
# 25
  0
POINT
  8
3
 10
4202.089844
 20
2.000000
  0
POINT
  8
3
 10
4268.093262
 20
2.000000
  0
POINT
  8
3
 10
4270.493164
 20
2.000000
  0
POINT
  8
2
 10
4297.152832
 20
2.000000
  0
TEXT
  8
1
 10
4297.152832
 20
2.000000
 40
0.400000
  1
# 26
  0
POINT
  8
3
 10
4297.152832
 20
66.000000
  0
POINT
  8
3
 10
4297.152832
 20
268.000000
  0
POINT
  8
3
 10
4297.152832
 20
430.000000
  0
POINT
  8
2
 10
4297.152832
 20
642.200012
  0
TEXT
  8
1
 10
4297.152832
 20
642.200012
 40
0.400000
  1
# 27
  0
POINT
  8
3
 10
4292.152832
 20
642.200012
  0
POINT
  8
3
 10
4289.652832
 20
642.200012
  0
POINT
  8
3
 10
4284.993164
 20
642.463623
  0
POINT
  8
3
 10
4280.373535
 20
643.242126
  0
POINT
  8
3
 10
4275.829590
 20
644.493103
  0
POINT
  8
2
 10
4271.398438
 20
646.174194
  0
TEXT
  8
1
 10
4271.398438
 20
646.174194
 40
0.400000
  1
# 28
  0
POINT
  8
3
 10
4267.115723
 20
648.242920
  0
POINT
  8
3
 10
4265.022949
 20
649.421265
  0
POINT
  8
3
 10
4261.000488
 20
652.034058
  0
POINT
  8
3
 10
4257.232422
 20
654.975464
  0
POINT
  8
2
 10
4253.763184
 20
658.230286
  0
TEXT
  8
1
 10
4253.763184
 20
658.230286
 40
0.400000
  1
# 29
  0
POINT
  8
3
 10
4250.636719
 20
661.783020
  0
POINT
  8
3
 10
4247.896484
 20
665.618347
  0
POINT
  8
3
 10
4246.690918
 20
667.623901
  0
POINT
  8
3
 10
4244.582031
 20
671.808899
  0
POINT
  8
3
 10
4242.849609
 20
676.185791
  0
TEXT
  8
1
 10
476.831055
 20
37.000000
 40
25.000000
 50
0.000000
  1
Size:48
  0
TEXT
  8
1
 10
476.831055
 20
36.750000
 40
25.000000
 50
0.000000
  1
Piece Name:002-NN
  0
TEXT
  8
1
 10
476.831055
 20
36.500000
 40
25.000000
 50
0.000000
  1
Annotation:NN
  0
TEXT
  8
1
 10
476.831055
 20
36.250000
 40
25.000000
 50
0.000000
  1
Category:
  0
TEXT
  8
1
 10
476.831055
 20
36.000000
 40
25.000000
 50
0.000000
  1
Quantity:1
  0
ENDBLK
  0
BLOCK
  8
1
  2
_003_48
 70
0
 10
0.000000
 20
0.000000
  0
POLYLINE
  8
1
 66
1
 70
    1
  0
VERTEX
  8
1
 10
5704.889648
 20
590.164307
  0
VERTEX
  8
1
 10
5706.497559
 20
598.419006
  0
VERTEX
  8
1
 10
5708.400879
 20
606.587891
  0
VERTEX
  8
1
 10
5710.575195
 20
614.674683
  0
VERTEX
  8
1
 10
5712.996094
 20
622.683228
  0
VERTEX
  8
1
 10
5715.640625
 20
630.617615
  0
VERTEX
  8
1
 10
5718.483398
 20
638.481567
  0
VERTEX
  8
1
 10
5721.501465
 20
646.279053
  0
VERTEX
  8
1
 10
5722.390137
 20
648.508362
  0
VERTEX
  8
1
 10
5708.124023
 20
654.610718
  0
VERTEX
  8
1
 10
5691.819824
 20
661.584900
  0
VERTEX
  8
1
 10
5677.553223
 20
667.687256
  0
VERTEX
  8
1
 10
5661.249023
 20
674.661499
  0
VERTEX
  8
1
 10
5646.982422
 20
680.763855
  0
VERTEX
  8
1
 10
5630.678223
 20
687.738037
  0
VERTEX
  8
1
 10
5610.802246
 20
599.960205
  0
VERTEX
  8
1
 10
5610.802246
 20
689.960327
  0
VERTEX
  8
1
 10
5595.540527
 20
692.761292
  0
VERTEX
  8
1
 10
5578.098145
 20
695.962524
  0
VERTEX
  8
1
 10
5576.664551
 20
693.914612
  0
VERTEX
  8
1
 10
5574.967773
 20
691.690857
  0
VERTEX
  8
1
 10
5573.092285
 20
689.606384
  0
VERTEX
  8
1
 10
5571.062988
 20
687.659119
  0
VERTEX
  8
1
 10
5568.904297
 20
685.846924
  0
VERTEX
  8
1
 10
5566.640625
 20
684.167786
  0
VERTEX
  8
1
 10
5562.832520
 20
681.739746
  0
VERTEX
  8
1
 10
5557.488770
 20
678.993835
  0
VERTEX
  8
1
 10
5551.911133
 20
676.765869
  0
VERTEX
  8
1
 10
5547.602539
 20
675.402771
  0
VERTEX
  8
1
 10
5541.750000
 20
673.975342
  0
VERTEX
  8
1
 10
5535.810547
 20
672.962769
  0
VERTEX
  8
1
 10
5532.999023
 20
672.620667
  0
VERTEX
  8
1
 10
5527.354980
 20
672.177795
  0
VERTEX
  8
1
 10
5521.698242
 20
672.037476
  0
VERTEX
  8
1
 10
5519.298340
 20
672.037476
  0
VERTEX
  8
1
 10
5514.298340
 20
672.037476
  0
VERTEX
  8
1
 10
5514.298340
 20
669.637512
  0
VERTEX
  8
1
 10
5514.362305
 20
603.493042
  0
VERTEX
  8
1
 10
5514.463867
 20
591.089783
  0
VERTEX
  8
1
 10
5515.076660
 20
557.117188
  0
VERTEX
  8
1
 10
5516.104980
 20
529.537476
  0
VERTEX
  8
1
 10
5517.000000
 20
513.263184
  0
VERTEX
  8
1
 10
5518.090332
 20
497.001617
  0
VERTEX
  8
1
 10
5520.718750
 20
464.505859
  0
VERTEX
  8
1
 10
5526.788574
 20
399.548676
  0
VERTEX
  8
1
 10
5529.503418
 20
369.076935
  0
VERTEX
  8
1
 10
5531.967773
 20
336.261932
  0
VERTEX
  8
1
 10
5532.931641
 20
319.840668
  0
VERTEX
  8
1
 10
5533.666504
 20
303.411987
  0
VERTEX
  8
1
 10
5534.134766
 20
286.977173
  0
VERTEX
  8
1
 10
5534.298340
 20
270.537506
  0
VERTEX
  8
1
 10
5534.298340
 20
268.037567
  0
VERTEX
  8
1
 10
5534.298340
 20
265.537506
  0
VERTEX
  8
1
 10
5534.298340
 20
167.037506
  0
VERTEX
  8
1
 10
5534.298340
 20
68.537506
  0
VERTEX
  8
1
 10
5534.298340
 20
66.037567
  0
VERTEX
  8
1
 10
5534.298340
 20
2.037567
  0
VERTEX
  8
1
 10
5558.638672
 20
2.037506
  0
VERTEX
  8
1
 10
5561.038574
 20
2.037506
  0
VERTEX
  8
1
 10
5626.965820
 20
2.037506
  0
VERTEX
  8
1
 10
5636.750000
 20
2.037506
  0
VERTEX
  8
1
 10
5668.169922
 20
2.037506
  0
VERTEX
  8
1
 10
5734.035645
 20
2.037506
  0
VERTEX
  8
1
 10
5775.201660
 20
2.037506
  0
VERTEX
  8
1
 10
5777.701660
 20
2.037506
  0
VERTEX
  8
1
 10
5777.701660
 20
4.537506
  0
VERTEX
  8
1
 10
5777.701660
 20
34.037506
  0
VERTEX
  8
1
 10
5777.701660
 20
63.537506
  0
VERTEX
  8
1
 10
5777.701660
 20
66.037506
  0
VERTEX
  8
1
 10
5777.701660
 20
68.537506
  0
VERTEX
  8
1
 10
5777.515137
 20
82.918961
  0
VERTEX
  8
1
 10
5777.021484
 20
95.963074
  0
VERTEX
  8
1
 10
5776.121094
 20
110.308212
  0
VERTEX
  8
1
 10
5774.978516
 20
123.330826
  0
VERTEX
  8
1
 10
5773.362793
 20
137.657074
  0
VERTEX
  8
1
 10
5771.567871
 20
150.675507
  0
VERTEX
  8
1
 10
5769.231445
 20
165.000061
  0
VERTEX
  8
1
 10
5768.076660
 20
171.339157
  0
VERTEX
  8
1
 10
5765.193359
 20
185.650421
  0
VERTEX
  8
1
 10
5762.263672
 20
198.554184
  0
VERTEX
  8
1
 10
5758.665527
 20
212.780838
  0
VERTEX
  8
1
 10
5755.081543
 20
225.628387
  0
VERTEX
  8
1
 10
5750.758789
 20
239.790009
  0
VERTEX
  8
1
 10
5746.508301
 20
252.600494
  0
VERTEX
  8
1
 10
5741.447266
 20
266.716187
  0
VERTEX
  8
1
 10
5739.947266
 20
270.698517
  0
VERTEX
  8
1
 10
5739.057617
 20
273.034912
  0
VERTEX
  8
1
 10
5738.586914
 20
275.490234
  0
VERTEX
  8
1
 10
5736.925293
 20
285.217773
  0
VERTEX
  8
1
 10
5735.775879
 20
293.851471
  0
VERTEX
  8
1
 10
5734.779785
 20
304.137512
  0
VERTEX
  8
1
 10
5734.206055
 20
313.421875
  0
VERTEX
  8
1
 10
5733.893555
 20
324.476135
  0
VERTEX
  8
1
 10
5733.933105
 20
334.677734
  0
VERTEX
  8
1
 10
5734.351074
 20
346.851135
  0
VERTEX
  8
1
 10
5735.082520
 20
358.455383
  0
VERTEX
  8
1
 10
5736.337891
 20
372.461609
  0
VERTEX
  8
1
 10
5736.928223
 20
377.970673
  0
VERTEX
  8
1
 10
5738.675293
 20
392.023071
  0
VERTEX
  8
1
 10
5741.676758
 20
412.089111
  0
VERTEX
  8
1
 10
5753.214844
 20
479.568176
  0
VERTEX
  8
1
 10
5753.604980
 20
482.037537
  0
VERTEX
  8
1
 10
5751.104980
 20
482.037506
  0
VERTEX
  8
1
 10
5748.908691
 20
482.123901
  0
VERTEX
  8
1
 10
5746.733887
 20
482.387604
  0
VERTEX
  8
1
 10
5744.582520
 20
482.818909
  0
VERTEX
  8
1
 10
5740.366699
 20
484.144653
  0
VERTEX
  8
1
 10
5736.287109
 20
486.022186
  0
VERTEX
  8
1
 10
5732.371094
 20
488.372620
  0
VERTEX
  8
1
 10
5728.644531
 20
491.116943
  0
VERTEX
  8
1
 10
5725.134277
 20
494.176331
  0
VERTEX
  8
1
 10
5721.867188
 20
497.471741
  0
VERTEX
  8
1
 10
5717.606934
 20
502.535889
  0
VERTEX
  8
1
 10
5715.079590
 20
506.078430
  0
VERTEX
  8
1
 10
5712.800293
 20
509.742493
  0
VERTEX
  8
1
 10
5710.769531
 20
513.518188
  0
VERTEX
  8
1
 10
5708.985352
 20
517.395508
  0
VERTEX
  8
1
 10
5707.447266
 20
521.364441
  0
VERTEX
  8
1
 10
5706.154297
 20
525.415100
  0
VERTEX
  8
1
 10
5705.104980
 20
529.537476
  0
VERTEX
  8
1
 10
5703.257812
 20
539.826843
  0
VERTEX
  8
1
 10
5702.392090
 20
548.164062
  0
VERTEX
  8
1
 10
5702.030762
 20
556.562500
  0
VERTEX
  8
1
 10
5702.136719
 20
564.991943
  0
VERTEX
  8
1
 10
5702.673340
 20
573.422180
  0
VERTEX
  8
1
 10
5703.603516
 20
581.823059
  0
SEQEND
  0
POINT
  8
2
 10
5704.889648
 20
590.164307
  0
TEXT
  8
1
 10
5704.889648
 20
590.164307
 40
0.400000
  1
# 30
  0
POINT
  8
3
 10
5706.497559
 20
598.419006
  0
POINT
  8
3
 10
5708.400879
 20
606.587891
  0
POINT
  8
3
 10
5710.575195
 20
614.674683
  0
POINT
  8
3
 10
5712.996094
 20
622.683228
  0
POINT
  8
3
 10
5715.640625
 20
630.617615
  0
POINT
  8
3
 10
5718.483398
 20
638.481567
  0
POINT
  8
3
 10
5721.501465
 20
646.279053
  0
POINT
  8
2
 10
5722.390137
 20
648.508362
  0
TEXT
  8
1
 10
5722.390137
 20
648.508362
 40
0.400000
  1
# 31
  0
POINT
  8
3
 10
5708.124023
 20
654.610718
  0
POINT
  8
3
 10
5691.819824
 20
661.584900
  0
POINT
  8
2
 10
5677.553223
 20
667.687256
  0
TEXT
  8
1
 10
5677.553223
 20
667.687256
 40
0.400000
  1
# 32
  0
POINT
  8
3
 10
5661.249023
 20
674.661499
  0
POINT
  8
3
 10
5646.982422
 20
680.763855
  0
POINT
  8
2
 10
5630.678223
 20
687.738037
  0
TEXT
  8
1
 10
5630.678223
 20
687.738037
 40
0.400000
  1
# 33
  0
POINT
  8
2
 10
5610.802246
 20
599.960205
  0
TEXT
  8
1
 10
5610.802246
 20
599.960205
 40
0.400000
  1
# 34
  0
POINT
  8
2
 10
5610.802246
 20
689.960327
  0
TEXT
  8
1
 10
5610.802246
 20
689.960327
 40
0.400000
  1
# 35
  0
POINT
  8
3
 10
5595.540527
 20
692.761292
  0
POINT
  8
2
 10
5578.098145
 20
695.962524
  0
TEXT
  8
1
 10
5578.098145
 20
695.962524
 40
0.400000
  1
# 36
  0
POINT
  8
3
 10
5576.664551
 20
693.914612
  0
POINT
  8
3
 10
5574.967773
 20
691.690857
  0
POINT
  8
3
 10
5573.092285
 20
689.606384
  0
POINT
  8
2
 10
5571.062988
 20
687.659119
  0
TEXT
  8
1
 10
5571.062988
 20
687.659119
 40
0.400000
  1
# 37
  0
POINT
  8
3
 10
5568.904297
 20
685.846924
  0
POINT
  8
3
 10
5566.640625
 20
684.167786
  0
POINT
  8
3
 10
5562.832520
 20
681.739746
  0
POINT
  8
2
 10
5557.488770
 20
678.993835
  0
TEXT
  8
1
 10
5557.488770
 20
678.993835
 40
0.400000
  1
# 38
  0
POINT
  8
3
 10
5551.911133
 20
676.765869
  0
POINT
  8
3
 10
5547.602539
 20
675.402771
  0
POINT
  8
3
 10
5541.750000
 20
673.975342
  0
POINT
  8
3
 10
5535.810547
 20
672.962769
  0
POINT
  8
2
 10
5532.999023
 20
672.620667
  0
TEXT
  8
1
 10
5532.999023
 20
672.620667
 40
0.400000
  1
# 39
  0
POINT
  8
3
 10
5527.354980
 20
672.177795
  0
POINT
  8
3
 10
5521.698242
 20
672.037476
  0
POINT
  8
3
 10
5519.298340
 20
672.037476
  0
POINT
  8
2
 10
5514.298340
 20
672.037476
  0
TEXT
  8
1
 10
5514.298340
 20
672.037476
 40
0.400000
  1
# 40
  0
POINT
  8
3
 10
5514.298340
 20
669.637512
  0
POINT
  8
3
 10
5514.362305
 20
603.493042
  0
POINT
  8
3
 10
5514.463867
 20
591.089783
  0
POINT
  8
2
 10
5515.076660
 20
557.117188
  0
TEXT
  8
1
 10
5515.076660
 20
557.117188
 40
0.400000
  1
# 41
  0
POINT
  8
3
 10
5516.104980
 20
529.537476
  0
POINT
  8
3
 10
5517.000000
 20
513.263184
  0
POINT
  8
3
 10
5518.090332
 20
497.001617
  0
POINT
  8
2
 10
5520.718750
 20
464.505859
  0
TEXT
  8
1
 10
5520.718750
 20
464.505859
 40
0.400000
  1
# 42
  0
POINT
  8
3
 10
5526.788574
 20
399.548676
  0
POINT
  8
3
 10
5529.503418
 20
369.076935
  0
POINT
  8
3
 10
5531.967773
 20
336.261932
  0
POINT
  8
2
 10
5532.931641
 20
319.840668
  0
TEXT
  8
1
 10
5532.931641
 20
319.840668
 40
0.400000
  1
# 43
  0
POINT
  8
3
 10
5533.666504
 20
303.411987
  0
POINT
  8
3
 10
5534.134766
 20
286.977173
  0
POINT
  8
3
 10
5534.298340
 20
270.537506
  0
POINT
  8
2
 10
5534.298340
 20
268.037567
  0
TEXT
  8
1
 10
5534.298340
 20
268.037567
 40
0.400000
  1
# 44
  0
POINT
  8
3
 10
5534.298340
 20
265.537506
  0
POINT
  8
2
 10
5534.298340
 20
167.037506
  0
TEXT
  8
1
 10
5534.298340
 20
167.037506
 40
0.400000
  1
# 45
  0
POINT
  8
3
 10
5534.298340
 20
68.537506
  0
POINT
  8
3
 10
5534.298340
 20
66.037567
  0
POINT
  8
2
 10
5534.298340
 20
2.037567
  0
TEXT
  8
1
 10
5534.298340
 20
2.037567
 40
0.400000
  1
# 46
  0
POINT
  8
3
 10
5558.638672
 20
2.037506
  0
POINT
  8
3
 10
5561.038574
 20
2.037506
  0
POINT
  8
3
 10
5626.965820
 20
2.037506
  0
POINT
  8
2
 10
5636.750000
 20
2.037506
  0
TEXT
  8
1
 10
5636.750000
 20
2.037506
 40
0.400000
  1
# 47
  0
POINT
  8
3
 10
5668.169922
 20
2.037506
  0
POINT
  8
3
 10
5734.035645
 20
2.037506
  0
POINT
  8
3
 10
5775.201660
 20
2.037506
  0
POINT
  8
2
 10
5777.701660
 20
2.037506
  0
TEXT
  8
1
 10
5777.701660
 20
2.037506
 40
0.400000
  1
# 48
  0
POINT
  8
3
 10
5777.701660
 20
4.537506
  0
POINT
  8
3
 10
5777.701660
 20
34.037506
  0
POINT
  8
3
 10
5777.701660
 20
63.537506
  0
POINT
  8
3
 10
5777.701660
 20
66.037506
  0
POINT
  8
2
 10
5777.701660
 20
68.537506
  0
TEXT
  8
1
 10
5777.701660
 20
68.537506
 40
0.400000
  1
# 49
  0
POINT
  8
3
 10
5777.515137
 20
82.918961
  0
POINT
  8
3
 10
5777.021484
 20
95.963074
  0
POINT
  8
3
 10
5776.121094
 20
110.308212
  0
POINT
  8
3
 10
5774.978516
 20
123.330826
  0
POINT
  8
3
 10
5773.362793
 20
137.657074
  0
POINT
  8
2
 10
5771.567871
 20
150.675507
  0
TEXT
  8
1
 10
5771.567871
 20
150.675507
 40
0.400000
  1
# 50
  0
POINT
  8
3
 10
5769.231445
 20
165.000061
  0
POINT
  8
3
 10
5768.076660
 20
171.339157
  0
POINT
  8
3
 10
5765.193359
 20
185.650421
  0
POINT
  8
3
 10
5762.263672
 20
198.554184
  0
POINT
  8
2
 10
5758.665527
 20
212.780838
  0
TEXT
  8
1
 10
5758.665527
 20
212.780838
 40
0.400000
  1
# 51
  0
POINT
  8
3
 10
5755.081543
 20
225.628387
  0
POINT
  8
3
 10
5750.758789
 20
239.790009
  0
POINT
  8
3
 10
5746.508301
 20
252.600494
  0
POINT
  8
3
 10
5741.447266
 20
266.716187
  0
POINT
  8
3
 10
5739.947266
 20
270.698517
  0
POINT
  8
2
 10
5739.057617
 20
273.034912
  0
TEXT
  8
1
 10
5739.057617
 20
273.034912
 40
0.400000
  1
# 52
  0
POINT
  8
3
 10
5738.586914
 20
275.490234
  0
POINT
  8
3
 10
5736.925293
 20
285.217773
  0
POINT
  8
3
 10
5735.775879
 20
293.851471
  0
POINT
  8
2
 10
5734.779785
 20
304.137512
  0
TEXT
  8
1
 10
5734.779785
 20
304.137512
 40
0.400000
  1
# 53
  0
POINT
  8
3
 10
5734.206055
 20
313.421875
  0
POINT
  8
3
 10
5733.893555
 20
324.476135
  0
POINT
  8
2
 10
5733.933105
 20
334.677734
  0
TEXT
  8
1
 10
5733.933105
 20
334.677734
 40
0.400000
  1
# 54
  0
POINT
  8
3
 10
5734.351074
 20
346.851135
  0
POINT
  8
3
 10
5735.082520
 20
358.455383
  0
POINT
  8
3
 10
5736.337891
 20
372.461609
  0
POINT
  8
2
 10
5736.928223
 20
377.970673
  0
TEXT
  8
1
 10
5736.928223
 20
377.970673
 40
0.400000
  1
# 55
  0
POINT
  8
3
 10
5738.675293
 20
392.023071
  0
POINT
  8
3
 10
5741.676758
 20
412.089111
  0
POINT
  8
3
 10
5753.214844
 20
479.568176
  0
POINT
  8
2
 10
5753.604980
 20
482.037537
  0
TEXT
  8
1
 10
5753.604980
 20
482.037537
 40
0.400000
  1
# 56
  0
POINT
  8
3
 10
5751.104980
 20
482.037506
  0
POINT
  8
3
 10
5748.908691
 20
482.123901
  0
POINT
  8
3
 10
5746.733887
 20
482.387604
  0
POINT
  8
3
 10
5744.582520
 20
482.818909
  0
POINT
  8
3
 10
5740.366699
 20
484.144653
  0
POINT
  8
3
 10
5736.287109
 20
486.022186
  0
POINT
  8
3
 10
5732.371094
 20
488.372620
  0
POINT
  8
2
 10
5728.644531
 20
491.116943
  0
TEXT
  8
1
 10
5728.644531
 20
491.116943
 40
0.400000
  1
# 57
  0
POINT
  8
3
 10
5725.134277
 20
494.176331
  0
POINT
  8
3
 10
5721.867188
 20
497.471741
  0
POINT
  8
3
 10
5717.606934
 20
502.535889
  0
POINT
  8
3
 10
5715.079590
 20
506.078430
  0
POINT
  8
3
 10
5712.800293
 20
509.742493
  0
POINT
  8
3
 10
5710.769531
 20
513.518188
  0
POINT
  8
3
 10
5708.985352
 20
517.395508
  0
POINT
  8
2
 10
5707.447266
 20
521.364441
  0
TEXT
  8
1
 10
5707.447266
 20
521.364441
 40
0.400000
  1
# 58
  0
POINT
  8
3
 10
5706.154297
 20
525.415100
  0
POINT
  8
3
 10
5705.104980
 20
529.537476
  0
POINT
  8
3
 10
5703.257812
 20
539.826843
  0
POINT
  8
3
 10
5702.392090
 20
548.164062
  0
POINT
  8
3
 10
5702.030762
 20
556.562500
  0
POINT
  8
3
 10
5702.136719
 20
564.991943
  0
POINT
  8
3
 10
5702.673340
 20
573.422180
  0
POINT
  8
3
 10
5703.603516
 20
581.823059
  0
TEXT
  8
1
 10
621.776184
 20
34.995003
 40
25.000000
 50
0.000000
  1
Size:48
  0
TEXT
  8
1
 10
621.776184
 20
34.745003
 40
25.000000
 50
0.000000
  1
Piece Name:003-NN
  0
TEXT
  8
1
 10
621.776184
 20
34.495003
 40
25.000000
 50
0.000000
  1
Annotation:NN
  0
TEXT
  8
1
 10
621.776184
 20
34.245003
 40
25.000000
 50
0.000000
  1
Category:
  0
TEXT
  8
1
 10
621.776184
 20
33.995003
 40
25.000000
 50
0.000000
  1
Quantity:1
  0
ENDBLK
  0
ENDSEC
  0
SECTION
  2
ENTITIES
  0
TEXT
  8
1
 10
621.776184
 20
34.995003
 40
25.000000
  1
Style Name:
  0
TEXT
  8
1
 10
621.776184
 20
34.745003
 40
25.000000
  1
Creation Date:09.07.2020
  0
TEXT
  8
1
 10
621.776184
 20
34.495003
 40
25.000000
  1
Creation Time:14:19
  0
TEXT
  8
1
 10
621.776184
 20
34.245003
 40
25.000000
  1
Author:GRAFIS V11.00
  0
TEXT
  8
1
 10
621.776184
 20
33.995003
 40
25.000000
  1
Sample Size:48
  0
TEXT
  8
1
 10
621.776184
 20
33.745003
 40
25.000000
  1
Units:METRIC
  0
TEXT
  8
1
 10
621.776184
 20
33.495003
 40
25.000000
  1
Grade Rule Table:градация
  0
INSERT
  8
1
  2
_002_48
 10
0.000000
 20
0.000000
  0
INSERT
  8
1
  2
_003_48
 10
0.000000
 20
0.000000
  0
ENDSEC
  0
EOF
